<svg xmlns="http://www.w3.org/2000/svg" width="600" height="316" viewBox="0 0 600 316" version="1.1"><path d="M 290.250 33.662 C 289.259 34.062, 289 59.992, 289 158.617 L 289 283.068 299.750 282.784 L 310.500 282.500 310.754 158.561 C 310.956 60.071, 310.750 34.459, 309.754 33.827 C 308.401 32.968, 292.308 32.832, 290.250 33.662 M 256.880 40.931 C 205.406 60.069, 172.356 110.327, 175.346 164.916 C 176.297 182.289, 180.825 199.789, 188.044 214 C 193.164 224.079, 192.444 223.895, 201.526 217.437 C 205.912 214.318, 209.911 211.386, 210.412 210.921 C 210.950 210.422, 209.640 206.449, 207.224 201.249 C 203.456 193.139, 200.093 182.110, 198.534 172.750 L 197.909 169 221.455 169 L 245 169 245 219.816 L 245 270.632 250.250 272.796 C 253.137 273.986, 258.087 275.844, 261.250 276.926 L 267 278.892 267 158.446 C 267 62.730, 266.743 38.010, 265.750 38.049 C 265.063 38.075, 261.071 39.372, 256.880 40.931 M 333 158.125 L 333 278.250 336.150 277.620 C 337.882 277.274, 342.719 275.524, 346.900 273.733 L 354.500 270.475 355 200.184 L 355.500 129.894 364.500 160.440 C 369.450 177.241, 373.725 190.966, 374 190.939 C 374.275 190.913, 380.125 179.235, 387 164.987 C 393.875 150.740, 399.802 139.064, 400.170 139.041 C 401.438 138.963, 402.259 152.272, 401.734 164.377 C 401.129 178.315, 398.279 189.563, 392.113 202.340 L 388.330 210.181 393.915 214.235 C 396.987 216.465, 400.932 219.350, 402.683 220.645 C 404.434 221.940, 406.117 223, 406.423 223 C 407.486 223, 415.756 205.458, 418.346 197.710 C 422.813 184.350, 424.409 173.850, 424.383 158 C 424.339 131.506, 418.150 110.800, 403.684 88.750 C 400.887 84.487, 398.352 81.014, 398.050 81.032 C 397.747 81.049, 393.254 91.869, 388.065 105.077 C 382.860 118.323, 378.335 128.509, 377.973 127.795 C 377.612 127.083, 373.106 108.800, 367.959 87.166 L 358.602 47.832 354.051 45.540 C 349.303 43.149, 335.570 38, 333.940 38 C 333.358 38, 333 83.784, 333 158.125 M 238.349 76.403 C 226.388 85.407, 215.001 99.070, 208.264 112.500 C 204.649 119.708, 200.516 131.807, 199.553 138 C 199.169 140.475, 198.631 143.287, 198.360 144.250 C 197.899 145.881, 199.466 146, 221.433 146 L 245 146 245 109 C 245 88.650, 244.820 72, 244.599 72 C 244.379 72, 241.566 73.981, 238.349 76.403" stroke="none" fill="#0707cc" fill-rule="evenodd"/><path d="M -0 158.002 L -0 316.003 300.250 315.752 L 600.500 315.500 600.753 157.750 L 601.006 0 300.503 0 L 0 0 -0 158.002 M 0.488 158.500 C 0.488 245.400, 0.606 280.802, 0.750 237.171 C 0.894 193.540, 0.894 122.440, 0.750 79.171 C 0.606 35.902, 0.488 71.600, 0.488 158.500 M 290.250 33.662 C 289.259 34.062, 289 59.992, 289 158.617 L 289 283.068 299.750 282.784 L 310.500 282.500 310.754 158.561 C 310.956 60.071, 310.750 34.459, 309.754 33.827 C 308.401 32.968, 292.308 32.832, 290.250 33.662 M 256.880 40.931 C 205.406 60.069, 172.356 110.327, 175.346 164.916 C 176.297 182.289, 180.825 199.789, 188.044 214 C 193.164 224.079, 192.444 223.895, 201.526 217.437 C 205.912 214.318, 209.911 211.386, 210.412 210.921 C 210.950 210.422, 209.640 206.449, 207.224 201.249 C 203.456 193.139, 200.093 182.110, 198.534 172.750 L 197.909 169 221.455 169 L 245 169 245 219.816 L 245 270.632 250.250 272.796 C 253.137 273.986, 258.087 275.844, 261.250 276.926 L 267 278.892 267 158.446 C 267 62.730, 266.743 38.010, 265.750 38.049 C 265.063 38.075, 261.071 39.372, 256.880 40.931 M 333 158.125 L 333 278.250 336.150 277.620 C 337.882 277.274, 342.719 275.524, 346.900 273.733 L 354.500 270.475 355 200.184 L 355.500 129.894 364.500 160.440 C 369.450 177.241, 373.725 190.966, 374 190.939 C 374.275 190.913, 380.125 179.235, 387 164.987 C 393.875 150.740, 399.802 139.064, 400.170 139.041 C 401.438 138.963, 402.259 152.272, 401.734 164.377 C 401.129 178.315, 398.279 189.563, 392.113 202.340 L 388.330 210.181 393.915 214.235 C 396.987 216.465, 400.932 219.350, 402.683 220.645 C 404.434 221.940, 406.117 223, 406.423 223 C 407.486 223, 415.756 205.458, 418.346 197.710 C 422.813 184.350, 424.409 173.850, 424.383 158 C 424.339 131.506, 418.150 110.800, 403.684 88.750 C 400.887 84.487, 398.352 81.014, 398.050 81.032 C 397.747 81.049, 393.254 91.869, 388.065 105.077 C 382.860 118.323, 378.335 128.509, 377.973 127.795 C 377.612 127.083, 373.106 108.800, 367.959 87.166 L 358.602 47.832 354.051 45.540 C 349.303 43.149, 335.570 38, 333.940 38 C 333.358 38, 333 83.784, 333 158.125 M 238.349 76.403 C 226.388 85.407, 215.001 99.070, 208.264 112.500 C 204.649 119.708, 200.516 131.807, 199.553 138 C 199.169 140.475, 198.631 143.287, 198.360 144.250 C 197.899 145.881, 199.466 146, 221.433 146 L 245 146 245 109 C 245 88.650, 244.820 72, 244.599 72 C 244.379 72, 241.566 73.981, 238.349 76.403" stroke="none" fill="#fbfbfb" fill-rule="evenodd"/></svg>