<svg xmlns="http://www.w3.org/2000/svg" width="216" height="198" viewBox="0 0 216 198" version="1.1"><path d="M 102.750 26.662 C 103.438 26.940, 104.563 26.940, 105.250 26.662 C 105.938 26.385, 105.375 26.158, 104 26.158 C 102.625 26.158, 102.063 26.385, 102.750 26.662 M 93.269 40.693 C 94.242 40.947, 95.592 40.930, 96.269 40.656 C 96.946 40.382, 96.150 40.175, 94.500 40.195 C 92.850 40.215, 92.296 40.439, 93.269 40.693 M 92.813 44.683 C 93.534 44.972, 94.397 44.936, 94.729 44.604 C 95.061 44.272, 94.471 44.036, 93.417 44.079 C 92.252 44.127, 92.015 44.364, 92.813 44.683 M 102 50.796 C 102 53.475, 102.291 53.643, 108.942 54.783 C 117.301 56.217, 124.877 59.452, 131.152 64.267 L 135.804 67.837 137.937 65.567 L 140.069 63.298 135.567 59.608 C 128.006 53.412, 114.188 48.039, 105.750 48.012 C 102.308 48.001, 102 48.230, 102 50.796 M 62.405 54.250 L 60.500 56.500 62.750 54.595 C 64.864 52.805, 65.455 52, 64.655 52 C 64.465 52, 63.453 53.013, 62.405 54.250 M 62.872 58.750 C 61.629 60.336, 61.664 60.371, 63.250 59.128 C 64.916 57.821, 65.445 57, 64.622 57 C 64.415 57, 63.627 57.788, 62.872 58.750 M 106.813 57.683 C 107.534 57.972, 108.397 57.936, 108.729 57.604 C 109.061 57.272, 108.471 57.036, 107.417 57.079 C 106.252 57.127, 106.015 57.364, 106.813 57.683 M 104.269 63.693 C 105.242 63.947, 106.592 63.930, 107.269 63.656 C 107.946 63.382, 107.150 63.175, 105.500 63.195 C 103.850 63.215, 103.296 63.439, 104.269 63.693 M 128 65.378 C 128 65.585, 128.787 66.373, 129.750 67.128 C 131.336 68.371, 131.371 68.336, 130.128 66.750 C 128.821 65.084, 128 64.555, 128 65.378 M 97 67.955 C 91.437 68.804, 85.672 71.250, 81.211 74.653 C 78.123 77.008, 77.957 77.386, 79.387 78.815 C 80.816 80.245, 81.165 80.194, 83.229 78.256 C 86.575 75.115, 93.967 72.047, 98.250 72.022 C 101.577 72.002, 102 71.718, 102 69.500 C 102 68.125, 101.888 67.060, 101.750 67.134 C 101.612 67.207, 99.475 67.577, 97 67.955 M 131.135 72.361 L 127.887 75.712 130.307 78.606 C 135.913 85.311, 140.563 99.390, 137.759 101.170 C 137.066 101.610, 139.646 101.941, 143.500 101.906 C 147.350 101.871, 149.938 101.615, 149.250 101.338 C 148.563 101.060, 148 99.378, 148 97.598 C 148 90.201, 142.018 76.184, 136.748 71.233 L 134.382 69.010 131.135 72.361 M 30.079 94.583 C 30.127 95.748, 30.364 95.985, 30.683 95.188 C 30.972 94.466, 30.936 93.603, 30.604 93.271 C 30.272 92.939, 30.036 93.529, 30.079 94.583 M 36.116 98.177 C 36.045 99.819, 35.324 101.030, 34.250 101.311 C 32.610 101.739, 32.612 101.775, 34.281 101.884 C 36.310 102.016, 37.391 99.972, 36.701 97.308 C 36.386 96.094, 36.194 96.379, 36.116 98.177 M 119.200 101.200 C 118.540 101.860, 118.052 103.323, 118.116 104.450 C 118.230 106.458, 118.242 106.459, 118.724 104.500 C 118.994 103.400, 119.672 101.938, 120.230 101.250 C 121.525 99.655, 120.781 99.619, 119.200 101.200 M 50.813 101.683 C 51.534 101.972, 52.397 101.936, 52.729 101.604 C 53.061 101.272, 52.471 101.036, 51.417 101.079 C 50.252 101.127, 50.015 101.364, 50.813 101.683 M 130.731 103.080 C 131.085 104.432, 131.538 104.886, 131.788 104.137 C 132.028 103.415, 131.750 102.350, 131.168 101.768 C 130.426 101.026, 130.296 101.417, 130.731 103.080 M 155.384 102.442 C 155.080 103.234, 155.007 104.697, 155.223 105.692 C 155.467 106.821, 155.809 106.279, 156.134 104.250 C 156.678 100.844, 156.325 99.991, 155.384 102.442 M 185.951 105.276 C 186.438 109.396, 186.459 109.417, 186.798 106.123 C 186.989 104.265, 186.765 102.365, 186.299 101.899 C 185.833 101.433, 185.677 102.953, 185.951 105.276 M 13.530 108.250 C 15.118 124.024, 20.266 138.708, 28.454 150.817 C 34.750 160.126, 38.909 164.491, 40.229 163.171 C 40.969 162.431, 40.085 160.680, 37.271 157.308 C 24.991 142.595, 17.517 124.431, 16.878 107.750 C 16.691 102.869, 16.374 102, 14.779 102 C 13.074 102, 12.959 102.578, 13.530 108.250 M 23 107.310 C 23 121.370, 32.106 143.352, 42.427 154.206 C 43.842 155.695, 45 157.529, 45 158.282 C 45 159.035, 46.237 160.742, 47.750 162.076 L 50.500 164.500 48.250 161.936 C 45.616 158.933, 45.394 157.170, 47.545 156.344 C 48.849 155.844, 48.774 155.530, 47.065 154.333 C 43.821 152.061, 36.238 140.802, 32.590 132.840 C 28.811 124.596, 26 113.380, 26 106.553 C 26 103.173, 25.614 102, 24.500 102 C 23.355 102, 23 103.257, 23 107.310 M 59.482 106.250 C 60.842 115.037, 65.042 124.926, 68.892 128.405 C 70.051 129.453, 71 130.915, 71 131.655 C 71 132.631, 71.492 132.520, 72.796 131.250 C 74.517 129.573, 74.518 129.446, 72.811 128.204 C 68.959 125.400, 63.996 114.560, 62.533 105.750 C 62.126 103.307, 61.372 102, 60.367 102 C 59.115 102, 58.948 102.802, 59.482 106.250 M 78 104.860 C 78 106.432, 79.400 110.433, 81.110 113.749 C 84.013 119.379, 84.333 119.671, 85.918 118.140 C 87.340 116.766, 87.388 116.361, 86.213 115.647 C 84.411 114.551, 81.051 107.174, 81.022 104.250 C 81.009 102.926, 80.382 102, 79.500 102 C 78.516 102, 78 102.984, 78 104.860 M 149.232 106 C 149.232 107.925, 149.438 108.713, 149.689 107.750 C 149.941 106.787, 149.941 105.213, 149.689 104.250 C 149.438 103.287, 149.232 104.075, 149.232 106 M 50.195 107.500 C 50.215 109.150, 50.439 109.704, 50.693 108.731 C 50.947 107.758, 50.930 106.408, 50.656 105.731 C 50.382 105.054, 50.175 105.850, 50.195 107.500 M 53.195 107.500 C 53.215 109.150, 53.439 109.704, 53.693 108.731 C 53.947 107.758, 53.930 106.408, 53.656 105.731 C 53.382 105.054, 53.175 105.850, 53.195 107.500 M 173.232 108 C 173.232 109.925, 173.438 110.713, 173.689 109.750 C 173.941 108.787, 173.941 107.213, 173.689 106.250 C 173.438 105.287, 173.232 106.075, 173.232 108 M 167.158 111 C 167.158 112.375, 167.385 112.938, 167.662 112.250 C 167.940 111.563, 167.940 110.438, 167.662 109.750 C 167.385 109.063, 167.158 109.625, 167.158 111 M 154.079 111.583 C 154.127 112.748, 154.364 112.985, 154.683 112.188 C 154.972 111.466, 154.936 110.603, 154.604 110.271 C 154.272 109.939, 154.036 110.529, 154.079 111.583 M 185.079 114.583 C 185.127 115.748, 185.364 115.985, 185.683 115.188 C 185.972 114.466, 185.936 113.603, 185.604 113.271 C 185.272 112.939, 185.036 113.529, 185.079 114.583 M 172.079 115.583 C 172.127 116.748, 172.364 116.985, 172.683 116.188 C 172.972 115.466, 172.936 114.603, 172.604 114.271 C 172.272 113.939, 172.036 114.529, 172.079 115.583 M 166.079 116.583 C 166.127 117.748, 166.364 117.985, 166.683 117.188 C 166.972 116.466, 166.936 115.603, 166.604 115.271 C 166.272 114.939, 166.036 115.529, 166.079 116.583 M 113.227 119.507 C 111.426 120.786, 108.164 122.134, 105.977 122.504 C 101.289 123.296, 100.395 126, 104.821 126 C 108.466 126, 118.500 120.926, 118.500 119.083 C 118.500 116.851, 116.771 116.990, 113.227 119.507 M 123.872 120.750 C 122.629 122.336, 122.664 122.371, 124.250 121.128 C 125.916 119.821, 126.445 119, 125.622 119 C 125.415 119, 124.627 119.787, 123.872 120.750 M 127.872 124.750 C 126.629 126.336, 126.664 126.371, 128.250 125.128 C 129.916 123.821, 130.445 123, 129.622 123 C 129.415 123, 128.627 123.787, 127.872 124.750 M 98.750 127.662 C 99.438 127.940, 100.563 127.940, 101.250 127.662 C 101.938 127.385, 101.375 127.158, 100 127.158 C 98.625 127.158, 98.063 127.385, 98.750 127.662 M 62 130.378 C 62 130.585, 62.788 131.373, 63.750 132.128 C 65.336 133.371, 65.371 133.336, 64.128 131.750 C 62.821 130.084, 62 129.555, 62 130.378 M 77 130.378 C 77 130.585, 77.787 131.373, 78.750 132.128 C 80.336 133.371, 80.371 133.336, 79.128 131.750 C 77.821 130.084, 77 129.555, 77 130.378 M 137.405 133.250 L 135.500 135.500 137.750 133.595 C 139.864 131.805, 140.455 131, 139.655 131 C 139.465 131, 138.453 132.012, 137.405 133.250 M 72 134.378 C 72 134.585, 72.787 135.373, 73.750 136.128 C 75.336 137.371, 75.371 137.336, 74.128 135.750 C 72.821 134.084, 72 133.555, 72 134.378 M 62 135.378 C 62 135.585, 62.788 136.373, 63.750 137.128 C 65.336 138.371, 65.371 138.336, 64.128 136.750 C 62.821 135.084, 62 134.555, 62 135.378 M 134.872 137.750 C 133.629 139.336, 133.664 139.371, 135.250 138.128 C 136.916 136.821, 137.445 136, 136.622 136 C 136.415 136, 135.627 136.787, 134.872 137.750 M 140.872 137.750 C 139.629 139.336, 139.664 139.371, 141.250 138.128 C 142.916 136.821, 143.445 136, 142.622 136 C 142.415 136, 141.627 136.787, 140.872 137.750 M 91.813 138.683 C 92.534 138.972, 93.397 138.936, 93.729 138.604 C 94.061 138.272, 93.471 138.036, 92.417 138.079 C 91.252 138.127, 91.015 138.364, 91.813 138.683 M 135.924 140.750 L 133.500 143.500 136.250 141.076 C 138.820 138.810, 139.459 138, 138.674 138 C 138.495 138, 137.258 139.238, 135.924 140.750 M 97.250 139.689 C 98.213 139.941, 99.787 139.941, 100.750 139.689 C 101.713 139.438, 100.925 139.232, 99 139.232 C 97.075 139.232, 96.287 139.438, 97.250 139.689 M 154.872 140.750 C 153.629 142.336, 153.664 142.371, 155.250 141.128 C 156.916 139.821, 157.445 139, 156.622 139 C 156.415 139, 155.627 139.787, 154.872 140.750 M 65 144.500 C 66.292 145.875, 67.574 147, 67.849 147 C 68.124 147, 67.292 145.875, 66 144.500 C 64.708 143.125, 63.426 142, 63.151 142 C 62.876 142, 63.708 143.125, 65 144.500 M 150.924 145.750 L 148.500 148.500 151.250 146.076 C 152.762 144.742, 154 143.505, 154 143.326 C 154 142.541, 153.190 143.180, 150.924 145.750 M 94.750 145.662 C 95.438 145.940, 96.563 145.940, 97.250 145.662 C 97.938 145.385, 97.375 145.158, 96 145.158 C 94.625 145.158, 94.063 145.385, 94.750 145.662 M 60.500 149 C 61.495 150.100, 62.535 151, 62.810 151 C 63.085 151, 62.495 150.100, 61.500 149 C 60.505 147.900, 59.465 147, 59.190 147 C 58.915 147, 59.505 147.900, 60.500 149 M 154.472 150.031 C 152.687 152.003, 152.688 152.112, 154.512 153.781 C 156.294 155.411, 156.322 155.409, 155.057 153.731 C 153.923 152.227, 153.992 151.666, 155.517 149.981 C 156.503 148.892, 157.085 148, 156.810 148 C 156.535 148, 155.483 148.914, 154.472 150.031 M 181 148.378 C 181 148.585, 181.787 149.373, 182.750 150.128 C 184.336 151.371, 184.371 151.336, 183.128 149.750 C 181.821 148.084, 181 147.555, 181 148.378 M 103.250 150.689 C 104.213 150.941, 105.787 150.941, 106.750 150.689 C 107.713 150.438, 106.925 150.232, 105 150.232 C 103.075 150.232, 102.287 150.438, 103.250 150.689 M 102 153.173 C 102 153.628, 103.350 154, 105 154 C 106.650 154, 108 153.826, 108 153.613 C 108 153.401, 106.650 153.029, 105 152.787 C 103.350 152.545, 102 152.718, 102 153.173 M 111.813 152.683 C 112.534 152.972, 113.397 152.936, 113.729 152.604 C 114.061 152.272, 113.471 152.036, 112.417 152.079 C 111.252 152.127, 111.015 152.364, 111.813 152.683 M 191.500 159 C 195.320 162.850, 198.671 166, 198.946 166 C 199.221 166, 196.320 162.850, 192.500 159 C 188.680 155.150, 185.329 152, 185.054 152 C 184.779 152, 187.680 155.150, 191.500 159 M 52.500 158 C 53.495 159.100, 54.535 160, 54.810 160 C 55.085 160, 54.495 159.100, 53.500 158 C 52.505 156.900, 51.465 156, 51.190 156 C 50.915 156, 51.505 156.900, 52.500 158 M 153.427 158.128 C 150.289 161.674, 137.685 169.513, 130.495 172.391 C 122.847 175.453, 111.694 178, 105.935 178 C 102.667 178, 102 178.339, 102 180 C 102 181.660, 101.277 182.029, 97.750 182.168 L 93.500 182.336 97.320 182.733 C 99.421 182.951, 101.671 182.710, 102.320 182.199 C 102.969 181.687, 106.650 180.964, 110.500 180.591 C 119.887 179.683, 129.912 176.626, 139 171.902 C 147.480 167.494, 158.270 159.311, 157.732 157.696 C 157.083 155.749, 155.381 155.920, 153.427 158.128 M 92.750 157.662 C 93.438 157.940, 94.563 157.940, 95.250 157.662 C 95.938 157.385, 95.375 157.158, 94 157.158 C 92.625 157.158, 92.063 157.385, 92.750 157.662 M 171 170.500 C 177.858 177.375, 183.695 183, 183.970 183 C 184.245 183, 178.858 177.375, 172 170.500 C 165.142 163.625, 159.305 158, 159.030 158 C 158.755 158, 164.142 163.625, 171 170.500 M 90.750 163.662 C 91.438 163.940, 92.563 163.940, 93.250 163.662 C 93.938 163.385, 93.375 163.158, 92 163.158 C 90.625 163.158, 90.063 163.385, 90.750 163.662 M 97.813 173.683 C 98.534 173.972, 99.397 173.936, 99.729 173.604 C 100.061 173.272, 99.471 173.036, 98.417 173.079 C 97.252 173.127, 97.015 173.364, 97.813 173.683 M 89.813 175.683 C 90.534 175.972, 91.397 175.936, 91.729 175.604 C 92.061 175.272, 91.471 175.036, 90.417 175.079 C 89.252 175.127, 89.015 175.364, 89.813 175.683 M 97.250 176.689 C 98.213 176.941, 99.787 176.941, 100.750 176.689 C 101.713 176.438, 100.925 176.232, 99 176.232 C 97.075 176.232, 96.287 176.438, 97.250 176.689 M 87.813 181.683 C 88.534 181.972, 89.397 181.936, 89.729 181.604 C 90.061 181.272, 89.471 181.036, 88.417 181.079 C 87.252 181.127, 87.015 181.364, 87.813 181.683" stroke="none" fill="#5bb4db" fill-rule="evenodd"/><path d="M 95.500 40.626 C 84.701 42.752, 81.706 43.596, 76.500 45.977 C 67.803 49.955, 58.721 56.959, 60.102 58.623 C 60.962 59.659, 62.241 59.137, 66.342 56.073 C 76.182 48.723, 88.247 44, 97.182 44 C 101.333 44, 102 43.723, 102 42 C 102 39.988, 100.427 39.656, 95.500 40.626 M 103 59.949 C 103 62.553, 103.369 62.827, 107.750 63.469 C 113.818 64.358, 120.466 67.263, 125.313 71.143 C 128.975 74.074, 129.203 74.126, 131.063 72.443 C 132.128 71.479, 133 70.347, 133 69.928 C 133 69.509, 130.243 67.324, 126.872 65.074 C 120.937 61.110, 114.513 58.741, 106.750 57.652 C 103.178 57.151, 103 57.260, 103 59.949 M 50.564 106.250 C 52.121 117.499, 58.742 132.291, 64.238 136.799 C 67.331 139.334, 67.206 135.999, 64.076 132.433 C 58.455 126.032, 53 112.677, 53 105.318 C 53 103.024, 52.534 102, 51.488 102 C 50.284 102, 50.096 102.865, 50.564 106.250 M 118.988 103.750 C 118.981 104.713, 117.949 107.300, 116.695 109.500 L 114.414 113.500 118.668 117.734 L 122.922 121.969 125.441 118.666 C 128.277 114.948, 131 107.948, 131 104.374 C 131 102.139, 130.649 102, 125 102 C 119.957 102, 118.998 102.279, 118.988 103.750 M 137 104.965 C 137 109.473, 134.157 116.977, 130.516 122.079 L 127.249 126.659 131.585 130.756 L 135.921 134.854 138.942 131.413 C 144.221 125.401, 147.742 117.043, 148.910 107.750 L 149.633 102 143.316 102 L 137 102 137 104.965 M 154.857 110.250 C 153.076 119.679, 149.487 127.903, 144.164 134.755 L 140.478 139.500 144.692 143.714 L 148.905 147.929 152.999 143.214 C 160.557 134.511, 168 115.323, 168 104.542 C 168 102.112, 167.745 102, 162.208 102 L 156.416 102 154.857 110.250 M 173.624 109.131 C 172.418 122.111, 167.219 134.713, 158.314 146.244 C 154.449 151.247, 154.047 152.213, 155.189 153.744 C 155.910 154.710, 162.703 161.556, 170.285 168.957 L 184.070 182.414 191.773 174.711 L 199.476 167.008 187.605 155.105 L 175.733 143.203 179.296 134.851 C 183.151 125.815, 186 113.784, 186 106.542 L 186 102 180.144 102 L 174.287 102 173.624 109.131 M 85.957 118.043 L 83.835 120.165 87.126 122.593 C 90.556 125.123, 95.895 126.985, 99.750 126.994 C 101.444 126.999, 102 126.422, 102 124.658 C 102 122.769, 101.178 122.071, 97.750 121.045 C 95.412 120.346, 92.280 118.907, 90.790 117.847 C 88.099 115.934, 88.064 115.936, 85.957 118.043 M 72.965 131.035 L 70.878 133.122 74.689 136.194 C 79.705 140.238, 87.324 143.589, 94.536 144.922 C 102.260 146.350, 102 146.412, 102 143.129 C 102 140.420, 101.703 140.218, 96.750 139.563 C 90.358 138.717, 83.753 135.912, 78.776 131.928 L 75.052 128.948 72.965 131.035 M 132.500 140.141 C 126.441 144.816, 117.582 148.714, 109.901 150.087 C 102.673 151.379, 100.663 153, 106.290 153 C 110.998 153, 120.221 150.429, 125.980 147.510 C 131.179 144.876, 138 139.420, 138 137.896 C 138 136.383, 136.667 136.927, 132.500 140.141 M 60.715 143.466 C 58.160 145.335, 58.572 146.477, 63.250 150.487 C 71.545 157.598, 88.192 163.926, 98.750 163.983 C 101.698 163.998, 102 163.722, 102 161 C 102 158.139, 101.803 157.999, 97.750 157.988 C 88.630 157.963, 74.182 152.272, 66.465 145.666 C 63.032 142.728, 62.174 142.399, 60.715 143.466 M 47.651 156.175 C 45.205 157.544, 45.623 159.249, 49.250 162.704 C 60.295 173.225, 82.038 182, 97.065 182 C 101.609 182, 102 181.809, 102 179.598 C 102 177.391, 101.493 177.141, 95.750 176.515 C 80.860 174.891, 66.227 168.973, 55.401 160.196 C 50.737 156.415, 48.913 155.469, 47.651 156.175" stroke="none" fill="#005695" fill-rule="evenodd"/><path d="M 87.500 13.567 C 73.424 16.186, 64.318 19.829, 53.073 27.339 C 41.073 35.354, 38.057 38.681, 41.090 40.556 C 41.690 40.926, 43.827 39.664, 45.840 37.751 C 50.007 33.791, 59.807 27.150, 65 24.769 C 74.298 20.506, 81.751 18.388, 92.750 16.883 C 100.541 15.817, 102 15.332, 102 13.809 C 102 11.632, 98.236 11.569, 87.500 13.567 M 88.813 22.683 C 89.534 22.972, 90.397 22.936, 90.729 22.604 C 91.061 22.272, 90.471 22.036, 89.417 22.079 C 88.252 22.127, 88.015 22.364, 88.813 22.683 M 97.250 25.689 C 98.213 25.941, 99.787 25.941, 100.750 25.689 C 101.713 25.438, 100.925 25.232, 99 25.232 C 97.075 25.232, 96.287 25.438, 97.250 25.689 M 72 27 C 71.175 27.533, 70.950 27.969, 71.500 27.969 C 72.050 27.969, 73.175 27.533, 74 27 C 74.825 26.467, 75.050 26.031, 74.500 26.031 C 73.950 26.031, 72.825 26.467, 72 27 M 88.813 26.683 C 89.534 26.972, 90.397 26.936, 90.729 26.604 C 91.061 26.272, 90.471 26.036, 89.417 26.079 C 88.252 26.127, 88.015 26.364, 88.813 26.683 M 50.405 40.250 L 48.500 42.500 50.750 40.595 C 52.864 38.805, 53.455 38, 52.655 38 C 52.465 38, 51.453 39.013, 50.405 40.250 M 40.880 48.107 C 29.130 62.384, 22.749 77.682, 21.291 95.069 L 20.710 102 23.757 102 C 26.756 102, 26.814 101.902, 27.475 95.750 C 29.064 80.946, 35.078 65.481, 42.931 56 C 44.981 53.525, 47.467 50.255, 48.456 48.733 C 50.022 46.320, 50.045 46.045, 48.635 46.587 C 47.643 46.967, 46.779 46.587, 46.401 45.604 C 45.479 43.199, 44.587 43.603, 40.880 48.107 M 154 49.659 C 154 50.205, 155.238 51.742, 156.750 53.076 L 159.500 55.500 157 52.500 C 155.625 50.850, 154.387 49.313, 154.250 49.083 C 154.113 48.854, 154 49.113, 154 49.659 M 144.398 59.365 L 141.309 62.731 145.509 68.345 C 151.409 76.232, 155.169 85.187, 156.388 94.250 L 157.429 102 162.249 102 L 167.069 102 166.449 96.750 C 164.830 83.056, 159.669 69.950, 152.291 60.798 C 150.206 58.212, 148.272 56.074, 147.993 56.048 C 147.714 56.022, 146.096 57.514, 144.398 59.365 M 55.036 59.725 C 47.034 68.738, 40.438 84.280, 39.823 95.571 L 39.500 101.500 42.500 101.500 C 45.445 101.500, 45.513 101.383, 46.200 95.156 C 47.475 83.593, 53.394 70.463, 60.563 63.294 C 62.408 61.449, 62.372 61.003, 60.250 59.392 C 57.956 57.651, 56.813 57.724, 55.036 59.725 M 92.500 59.387 C 86.970 60.733, 76 65.797, 76 67.003 C 76 67.426, 74.468 68.499, 72.596 69.387 C 66.056 72.491, 58 87.993, 58 97.475 C 58 101.791, 58.133 102, 60.871 102 C 63.580 102, 63.782 101.703, 64.437 96.750 C 66.169 83.660, 75.747 70.323, 87 65.330 C 90.530 63.763, 97.343 62, 99.866 62 C 101.333 62, 102 61.375, 102 60 C 102 57.665, 100.082 57.542, 92.500 59.387 M 175.695 64.487 C 176.610 66.406, 177.536 67.797, 177.753 67.580 C 178.210 67.123, 175.175 61, 174.490 61 C 174.239 61, 174.781 62.569, 175.695 64.487 M 97 77.125 C 92.397 78.368, 88.958 80.012, 86.500 82.144 C 85.400 83.098, 84.050 83.988, 83.500 84.122 C 80.718 84.800, 76 94.552, 76 99.626 C 76 101.583, 76.513 102, 78.921 102 C 81.408 102, 81.943 101.518, 82.526 98.750 C 83.508 94.094, 88.598 85.493, 91.496 83.595 C 92.855 82.704, 95.662 81.625, 97.733 81.197 C 100.555 80.614, 101.580 79.864, 101.820 78.209 C 102.170 75.783, 102.061 75.759, 97 77.125 M 174.079 89.583 C 174.127 90.748, 174.364 90.985, 174.683 90.188 C 174.972 89.466, 174.936 88.603, 174.604 88.271 C 174.272 87.939, 174.036 88.529, 174.079 89.583 M 184.195 93.500 C 184.215 95.150, 184.439 95.704, 184.693 94.731 C 184.947 93.758, 184.930 92.408, 184.656 91.731 C 184.382 91.054, 184.175 91.850, 184.195 93.500 M 175.232 99 C 175.232 100.925, 175.438 101.713, 175.689 100.750 C 175.941 99.787, 175.941 98.213, 175.689 97.250 C 175.438 96.287, 175.232 97.075, 175.232 99 M 41.158 110 C 41.158 111.375, 41.385 111.938, 41.662 111.250 C 41.940 110.563, 41.940 109.438, 41.662 108.750 C 41.385 108.063, 41.158 108.625, 41.158 110 M 44.079 109.583 C 44.127 110.748, 44.364 110.985, 44.683 110.188 C 44.972 109.466, 44.936 108.603, 44.604 108.271 C 44.272 107.939, 44.036 108.529, 44.079 109.583 M 79.750 124.217 C 77.430 127.120, 77.508 127.514, 80.885 129.918 C 85.129 132.940, 91.853 135.609, 97.250 136.414 L 102 137.123 102 133.561 C 102 130.156, 101.846 130, 98.489 130 C 94.592 130, 87.417 126.969, 84.184 123.957 C 81.622 121.570, 81.877 121.555, 79.750 124.217 M 55 141.378 C 55 141.585, 55.788 142.373, 56.750 143.128 C 58.336 144.371, 58.371 144.336, 57.128 142.750 C 55.821 141.084, 55 140.555, 55 141.378 M 137.981 147.106 C 131.773 151.771, 126.967 154.373, 120.800 156.410 C 114.404 158.522, 105.077 160.244, 103.439 159.615 C 102.490 159.251, 102 159.727, 102 161.016 C 102 162.808, 102.517 162.921, 108.250 162.385 C 117.903 161.482, 127.914 157.942, 136 152.573 C 142.797 148.060, 145.609 145.209, 144.429 144.029 C 143.750 143.350, 141.640 144.357, 137.981 147.106 M 148.924 153.750 L 146.500 156.500 149.250 154.076 C 151.820 151.810, 152.459 151, 151.674 151 C 151.495 151, 150.258 152.238, 148.924 153.750 M 132 165 C 131.099 165.582, 130.975 165.975, 131.691 165.985 C 132.346 165.993, 133.160 165.550, 133.500 165 C 134.267 163.758, 133.921 163.758, 132 165 M 118.813 166.683 C 119.534 166.972, 120.397 166.936, 120.729 166.604 C 121.061 166.272, 120.471 166.036, 119.417 166.079 C 118.252 166.127, 118.015 166.364, 118.813 166.683 M 127 167 C 126.175 167.533, 125.950 167.969, 126.500 167.969 C 127.050 167.969, 128.175 167.533, 129 167 C 129.825 166.467, 130.050 166.031, 129.500 166.031 C 128.950 166.031, 127.825 166.467, 127 167 M 105.762 168.707 C 107.006 168.946, 108.806 168.937, 109.762 168.687 C 110.718 168.437, 109.700 168.241, 107.500 168.252 C 105.300 168.263, 104.518 168.468, 105.762 168.707 M 114.813 170.683 C 115.534 170.972, 116.397 170.936, 116.729 170.604 C 117.061 170.272, 116.471 170.036, 115.417 170.079 C 114.252 170.127, 114.015 170.364, 114.813 170.683 M 109.269 171.693 C 110.242 171.947, 111.592 171.930, 112.269 171.656 C 112.946 171.382, 112.150 171.175, 110.500 171.195 C 108.850 171.215, 108.296 171.439, 109.269 171.693" stroke="none" fill="#f2b127" fill-rule="evenodd"/><path d="M 102.667 20.667 C 101.753 21.580, 101.822 25.995, 102.750 26.022 C 104.608 26.075, 120.866 28.941, 124.130 29.790 C 131.913 31.816, 145.090 39.234, 151.500 45.199 C 154.964 48.422, 155.591 48.552, 157.669 46.474 C 159.889 44.254, 158.952 42.875, 151.337 37.147 C 139.980 28.604, 128.709 23.861, 114 21.436 C 104.162 19.814, 103.560 19.773, 102.667 20.667 M 102.170 41.613 C 102.485 44.368, 102.821 44.549, 109.500 45.575 C 113.350 46.166, 117.625 47.008, 119 47.445 C 124.838 49.302, 133.893 54.281, 138.012 57.900 C 142.435 61.786, 142.448 61.789, 144.222 59.744 C 145.200 58.616, 146 57.368, 146 56.969 C 146 56.002, 136.457 48.731, 131.779 46.133 C 125.974 42.909, 116.726 40.193, 108.948 39.426 L 101.841 38.726 102.170 41.613 M 48.555 53.656 C 39.205 63.500, 33.130 76.997, 30.894 92.896 C 29.786 100.768, 30.343 102.246, 34.051 101.276 C 35.446 100.911, 36.032 99.455, 36.517 95.149 C 37.919 82.696, 42.676 71.181, 50.767 60.657 L 55.259 54.815 53.258 52.813 L 51.256 50.811 48.555 53.656 M 102.195 60.500 C 102.215 62.150, 102.439 62.704, 102.693 61.731 C 102.947 60.758, 102.930 59.408, 102.656 58.731 C 102.382 58.054, 102.175 58.850, 102.195 60.500 M 102.184 78.714 C 102.429 80.822, 103.170 81.565, 105.500 82.038 C 111.809 83.320, 114.383 85.355, 117.245 91.324 C 118.779 94.525, 120.125 98.236, 120.235 99.572 C 120.418 101.776, 120.877 102, 125.218 102 C 130.507 102, 130.436 102.132, 128.928 95.100 C 127.823 89.948, 122.591 81.516, 121.079 82.451 C 120.610 82.741, 119.703 82.347, 119.062 81.575 C 117.112 79.225, 109.235 76, 105.444 76 C 102.142 76, 101.891 76.209, 102.184 78.714 M 128.833 130.808 C 128.326 132.039, 119.889 137.492, 116.500 138.779 C 114.850 139.406, 111.700 140.201, 109.500 140.547 C 103.661 141.463, 102 142.022, 102 143.067 C 102 144.346, 108.950 144.243, 113.101 142.903 C 122.794 139.774, 132.867 133.212, 131.463 130.939 C 130.750 129.787, 129.285 129.714, 128.833 130.808 M 54.440 149.386 C 51.924 152.109, 51.873 153.156, 54.158 155.166 C 65.166 164.851, 78.671 171.012, 92.043 172.450 C 95.594 172.832, 99.287 173.367, 100.250 173.639 C 101.673 174.042, 102 173.494, 102 170.705 L 102 167.276 94.384 166.586 C 82.633 165.521, 70.434 160.463, 60.913 152.707 C 56.999 149.518, 55.180 148.585, 54.440 149.386" stroke="none" fill="#55b045" fill-rule="evenodd"/><path d="M 0 99.004 L 0 198.009 108.250 197.754 L 216.500 197.500 216.755 98.750 L 217.010 0 108.505 0 L 0 0 0 99.004 M 0.481 99.500 C 0.481 153.950, 0.602 176.078, 0.750 148.674 C 0.898 121.270, 0.898 76.720, 0.750 49.674 C 0.602 22.628, 0.481 45.050, 0.481 99.500 M 87.500 13.567 C 73.424 16.186, 64.318 19.829, 53.073 27.339 C 41.073 35.354, 38.057 38.681, 41.090 40.556 C 41.690 40.926, 43.827 39.664, 45.840 37.751 C 50.007 33.791, 59.807 27.150, 65 24.769 C 74.298 20.506, 81.751 18.388, 92.750 16.883 C 100.541 15.817, 102 15.332, 102 13.809 C 102 11.632, 98.236 11.569, 87.500 13.567 M 101.542 20.931 C 101.179 21.519, 98.321 22.016, 95.191 22.036 C 89.996 22.068, 83.386 23.326, 75.491 25.785 C 68.190 28.059, 52.659 37.352, 48.595 41.878 C 47.547 43.045, 46.143 44, 45.475 44 C 44.195 44, 39.444 49.411, 34.626 56.357 C 30.458 62.367, 25.543 73.472, 23.579 81.319 C 21.297 90.437, 20.333 102, 21.855 102 C 22.571 102, 23 103.988, 23 107.310 C 23 121.370, 32.106 143.352, 42.427 154.206 C 43.842 155.695, 45 157.587, 45 158.411 C 45 160.496, 56.147 169.304, 64.022 173.442 C 75.512 179.480, 98.935 184.877, 102.256 182.251 C 102.940 181.711, 106.650 180.964, 110.500 180.591 C 124.965 179.191, 140.894 172.571, 152.595 163.096 L 158.690 158.160 171.076 170.577 L 183.463 182.993 191.231 175.270 C 195.504 171.022, 199 167.059, 199 166.463 C 199 165.867, 193.836 160.308, 187.524 154.109 L 176.047 142.840 178.410 138.170 C 183.691 127.730, 188.681 104.281, 186.157 101.757 C 185.521 101.121, 185 98.930, 185 96.888 C 185 90.821, 182.352 78.807, 179.272 70.897 C 175.252 60.573, 164.040 44.122, 160.688 43.630 C 160.002 43.530, 156.545 41.105, 153.006 38.241 C 141.029 28.550, 125.372 22.279, 108.851 20.556 C 104.490 20.101, 101.976 20.230, 101.542 20.931 M 86 27.449 C 78.508 29.296, 74.931 30.472, 70.372 32.585 C 63.414 35.809, 52.174 43.903, 49.324 47.742 C 47.789 49.809, 44.884 53.525, 42.869 56 C 37.929 62.065, 31.608 75.048, 29.722 83 C 28.874 86.575, 27.611 93.878, 26.915 99.228 C 25.793 107.853, 25.850 109.894, 27.412 117.228 C 30.481 131.634, 42.240 152.620, 48.598 155.037 C 50.002 155.571, 53.254 157.765, 55.825 159.913 C 66.001 168.414, 81.071 174.524, 94.702 175.677 C 98.716 176.016, 102 176.677, 102 177.147 C 102 179.673, 119.632 176.740, 130.430 172.417 C 137.970 169.399, 147.971 163.256, 152.738 158.715 C 155.707 155.887, 155.847 155.488, 154.417 153.908 C 152.985 152.326, 153.262 151.685, 157.829 146.017 C 165.737 136.203, 173 119.022, 173 110.128 C 173 108.749, 173.546 104.978, 174.213 101.749 C 175.244 96.757, 175.163 94.577, 173.670 87.189 C 171.515 76.527, 164.869 62.579, 158.457 55.262 C 155.932 52.382, 154.137 49.588, 154.467 49.053 C 155.461 47.445, 144.097 39.178, 134.500 34.529 C 129.550 32.131, 122.350 29.488, 118.500 28.656 C 108.068 26.402, 92.577 25.827, 86 27.449 M 95.755 39.986 C 83.115 41.575, 69.030 47.766, 61.452 55.065 C 59.776 56.679, 58.029 58, 57.570 58 C 54.705 58, 45.463 72.787, 42.619 81.922 C 39.817 90.921, 38.548 99.728, 39.820 101.341 C 40.323 101.979, 40.982 105.200, 41.284 108.500 C 42.153 117.965, 45.565 127.200, 51.277 135.538 C 54.149 139.732, 57.090 144.258, 57.811 145.596 C 60.388 150.374, 72.206 157.970, 82.500 161.464 C 88.633 163.546, 101.272 165.049, 102.094 163.795 C 102.420 163.296, 105.345 162.644, 108.594 162.345 C 120.627 161.240, 134.363 155.236, 142.956 147.324 C 145.289 145.176, 145.507 145.149, 147.318 146.781 C 149.145 148.429, 149.384 148.314, 153.109 144 C 158.062 138.264, 164.547 125.341, 166.589 117.139 C 168.731 108.536, 167.220 93.326, 162.936 80.353 C 159.817 70.911, 149.353 55.046, 147.143 56.411 C 146.662 56.709, 145.479 56.082, 144.515 55.017 C 141.417 51.593, 130.698 45.170, 123.677 42.529 C 115.906 39.606, 105.975 38.701, 95.755 39.986 M 89.276 45.511 C 78.607 47.830, 66.372 55.306, 60.374 63.173 C 51.389 74.958, 47.469 83.560, 46.427 93.782 C 46.106 96.927, 45.357 100.506, 44.761 101.735 C 43.335 104.677, 45.878 117.871, 49.321 125.391 C 52.437 132.197, 59.750 142, 61.711 142 C 62.520 142, 65.054 143.602, 67.341 145.560 C 73.502 150.834, 82.553 154.892, 92.062 156.643 C 96.703 157.498, 101.453 158.647, 102.618 159.197 C 104.896 160.272, 112.563 159.076, 121.270 156.285 C 126.102 154.737, 135.460 149.369, 140.522 145.241 C 143.189 143.066, 143.227 142.909, 141.531 141.035 C 139.834 139.159, 139.895 138.941, 143.207 135.071 C 149.323 127.926, 155 113.824, 155 105.776 C 155 104.234, 155.525 102.132, 156.167 101.104 C 159.109 96.393, 153.389 78.878, 145.437 68.249 C 143.088 65.109, 141.366 62.217, 141.610 61.822 C 142.228 60.822, 132.524 53.723, 126.500 50.769 C 120.804 47.976, 115.334 46.439, 106 45.010 C 98.030 43.790, 97.065 43.819, 89.276 45.511 M 102 50.796 C 102 53.475, 102.291 53.643, 108.942 54.783 C 117.301 56.217, 124.877 59.452, 131.152 64.267 L 135.804 67.837 137.937 65.567 L 140.069 63.298 135.567 59.608 C 128.006 53.412, 114.188 48.039, 105.750 48.012 C 102.308 48.001, 102 48.230, 102 50.796 M 45.589 56.885 C 36.636 68.519, 30.980 83.147, 30.657 95.500 L 30.500 101.500 33.500 101.500 C 36.495 101.500, 36.501 101.487, 37.140 94.335 C 38.247 81.954, 43.955 68.510, 51.994 59.354 C 53.647 57.471, 55 55.566, 55 55.120 C 55 54.209, 51.675 51, 50.730 51 C 50.393 51, 48.079 53.648, 45.589 56.885 M 95 58.876 C 87.587 60.558, 76 65.515, 76 67.003 C 76 67.426, 74.468 68.499, 72.596 69.387 C 66.510 72.275, 57.999 87.926, 58.001 96.225 C 58.003 105.982, 63.884 123.664, 68.601 128.095 C 69.920 129.334, 71 131.150, 71 132.129 C 71 133.107, 73.069 135.488, 75.597 137.419 C 83.463 143.424, 97.532 147.533, 102.299 145.216 C 103.510 144.627, 106.573 143.951, 109.106 143.712 C 114.544 143.200, 124.034 139.076, 129.105 135.021 C 132.488 132.316, 132.816 132.242, 134.431 133.819 C 136.047 135.398, 136.322 135.298, 138.951 132.187 C 143.087 127.292, 146.734 120.117, 148.467 113.465 C 150.220 106.734, 150.466 101, 149 101 C 148.450 101, 148 99.507, 148 97.682 C 148 90.078, 142.037 76.201, 136.557 71.054 C 135.151 69.732, 134 69.001, 134 69.429 C 134 69.857, 132.412 68.813, 130.472 67.110 C 125.889 63.085, 120.444 60.351, 113.320 58.495 C 106.326 56.673, 104.542 56.710, 95 58.876 M 92.500 63.452 C 90.300 64.107, 87.600 65.024, 86.500 65.490 C 76.064 69.910, 66.125 83.992, 64.437 96.750 C 64.055 99.638, 63.345 102, 62.859 102 C 61.633 102, 62.899 109.469, 65.172 115.645 C 67.341 121.539, 72.418 129, 74.259 129 C 74.945 129, 77.736 130.585, 80.462 132.523 C 85.797 136.316, 93.347 139, 98.682 139 C 100.507 139, 102 139.513, 102 140.140 C 102 141.984, 112.333 140.453, 118.253 137.732 C 121.139 136.405, 124.982 134.067, 126.792 132.535 C 129.929 129.882, 130.004 129.662, 128.378 127.865 C 126.763 126.080, 126.784 125.859, 128.769 123.740 C 131.847 120.454, 135.884 111.202, 136.618 105.750 C 136.970 103.138, 137.655 101, 138.141 101 C 140.943 101, 135.250 84.463, 130.509 78.828 C 129.122 77.179, 128.231 75.435, 128.531 74.950 C 128.830 74.466, 126.637 72.452, 123.658 70.473 C 117.962 66.692, 110.578 64, 105.900 64 C 104.370 64, 102.840 63.550, 102.500 63 C 101.718 61.735, 97.652 61.918, 92.500 63.452 M 97 67.955 C 91.437 68.804, 85.672 71.250, 81.211 74.653 C 78.123 77.008, 77.957 77.386, 79.387 78.815 C 80.816 80.245, 81.165 80.194, 83.229 78.256 C 86.575 75.115, 93.967 72.047, 98.250 72.022 C 101.577 72.002, 102 71.718, 102 69.500 C 102 68.125, 101.888 67.060, 101.750 67.134 C 101.612 67.207, 99.475 67.577, 97 67.955 M 98 77.024 C 90.532 79.203, 88.883 79.952, 86.169 82.399 C 84.888 83.555, 83.538 84.470, 83.169 84.433 C 81.947 84.311, 78.978 88.812, 77.479 93.061 C 75.772 97.896, 75.553 102, 77 102 C 77.550 102, 78 103.234, 78 104.741 C 78 109.231, 84.691 121.646, 88.317 123.884 C 92.771 126.633, 101.265 128.705, 101.777 127.168 C 101.992 126.525, 103.367 125.990, 104.833 125.978 C 107.800 125.954, 115.577 122.692, 118.089 120.420 C 119.520 119.125, 119.864 119.131, 120.979 120.475 C 122.927 122.822, 123.810 122.369, 126.960 117.402 C 130.185 112.317, 132.551 103.401, 131.148 101.623 C 130.661 101.005, 129.716 98.171, 129.049 95.324 C 127.746 89.765, 123.221 81.879, 121.531 82.223 C 120.964 82.338, 118.685 81.215, 116.466 79.727 C 110.774 75.908, 104.815 75.036, 98 77.024 M 97.733 81.174 C 95.662 81.615, 92.855 82.704, 91.496 83.595 C 88.293 85.694, 83.581 94.113, 81.958 100.638 C 80.764 105.438, 80.838 106.095, 83.090 110.638 C 84.545 113.574, 86.290 115.647, 87.496 115.871 C 88.593 116.074, 90.573 117.092, 91.896 118.133 C 93.219 119.173, 96.033 120.301, 98.150 120.640 C 100.268 120.979, 102 121.648, 102 122.128 C 102 124.241, 111.678 121.506, 115.074 118.433 C 116.843 116.832, 116.877 116.521, 115.455 114.950 C 114.033 113.379, 114.077 112.923, 115.943 109.862 C 117.070 108.013, 117.994 105.514, 117.996 104.309 C 117.998 103.104, 118.450 101.840, 119 101.500 C 120.737 100.427, 120.092 96.833, 117.311 92.088 C 115.833 89.565, 114.764 87.281, 114.936 87.014 C 115.488 86.159, 106.770 82, 104.426 82 C 103.183 82, 102.017 81.634, 101.833 81.186 C 101.650 80.738, 99.805 80.733, 97.733 81.174 M 50 104.606 C 50 113.286, 55.462 127.151, 61.973 135 C 64.215 137.703, 65.149 138.230, 66.072 137.316 C 66.998 136.400, 66.475 135.045, 63.759 131.316 C 57.484 122.701, 55.009 116.517, 53.530 105.750 C 52.721 99.863, 50 98.981, 50 104.606 M 13.530 108.250 C 15.118 124.024, 20.266 138.708, 28.454 150.817 C 34.750 160.126, 38.909 164.491, 40.229 163.171 C 40.969 162.431, 40.085 160.680, 37.271 157.308 C 24.991 142.595, 17.517 124.431, 16.878 107.750 C 16.691 102.869, 16.374 102, 14.779 102 C 13.074 102, 12.959 102.578, 13.530 108.250 M 79.750 124.217 C 77.430 127.120, 77.508 127.514, 80.885 129.918 C 85.129 132.940, 91.853 135.609, 97.250 136.414 L 102 137.123 102 133.561 C 102 130.156, 101.846 130, 98.489 130 C 94.592 130, 87.417 126.969, 84.184 123.957 C 81.622 121.570, 81.877 121.555, 79.750 124.217 M 133 139.174 C 126.198 144.964, 113.553 150, 105.818 150 C 102.667 150, 102 150.349, 102 152 C 102 154.330, 103.181 154.444, 111.566 152.924 C 123.022 150.848, 141.209 140.061, 137.873 137.322 C 136.808 136.448, 135.714 136.864, 133 139.174 M 53.050 150.446 L 50.815 152.826 56.658 157.416 C 68.039 166.359, 80.957 171.589, 96.250 173.446 C 100.108 173.914, 102 173.791, 102 173.072 C 102 172.465, 104.060 171.985, 106.750 171.964 C 119.454 171.869, 135.872 165.307, 147.277 155.765 C 151.154 152.522, 151.831 151.501, 150.872 150.346 C 149.870 149.138, 149.296 149.285, 147.095 151.314 C 140.229 157.641, 128.439 163.957, 118.844 166.447 C 113.084 167.943, 104.427 168.588, 102 167.704 C 101.175 167.403, 97.697 166.875, 94.271 166.531 C 90.845 166.187, 85.220 164.994, 81.771 163.879 C 75.717 161.922, 62.708 154.954, 61.519 153.031 C 61.200 152.515, 59.667 151.187, 58.113 150.080 L 55.286 148.067 53.050 150.446" stroke="none" fill="#ffffff" fill-rule="evenodd"/><path d="M 85.483 23.523 C 73.670 26.119, 62.018 31.740, 51.723 39.810 C 46.299 44.061, 45.216 45.905, 47.664 46.721 C 48.236 46.912, 50.457 45.503, 52.602 43.591 C 62.721 34.566, 78.346 27.787, 93.555 25.824 C 99.497 25.056, 102 24.328, 102 23.367 C 102 21.606, 93.854 21.683, 85.483 23.523 M 157.250 46.525 C 156.012 47.847, 155 49.146, 155 49.411 C 155 49.677, 157.267 52.889, 160.037 56.549 C 168.989 68.376, 173.945 80.916, 175.529 95.750 L 176.196 102 180.659 102 L 185.121 102 184.431 94.750 C 183.381 83.728, 180.615 74.173, 175.637 64.375 C 170.845 54.941, 162.789 43.959, 160.735 44.061 C 160.056 44.095, 158.488 45.204, 157.250 46.525 M 41 104.042 C 41 108.848, 44.387 121.974, 47.102 127.686 C 50.575 134.995, 57.431 144, 59.523 144 C 61.667 144, 61.455 143.530, 56.629 137.606 C 49.482 128.831, 44 115.020, 44 105.790 C 44 103.088, 43.569 102, 42.500 102 C 41.656 102, 41 102.894, 41 104.042 M 147.833 150.841 C 147.101 152.688, 137.099 159.496, 130.471 162.658 C 123.154 166.150, 112.197 168.953, 105.750 168.983 C 103.091 168.995, 102 169.436, 102 170.500 C 102 172.356, 103.410 172.365, 113.582 170.575 C 122.192 169.060, 131.444 165.688, 138.764 161.398 C 143.758 158.471, 151 152.248, 151 150.884 C 151 149.758, 148.277 149.721, 147.833 150.841" stroke="none" fill="#da2f2a" fill-rule="evenodd"/></svg>