<?xml version="1.0" encoding="UTF-8" standalone="no"?>
<!DOCTYPE svg PUBLIC "-//W3C//DTD SVG 1.1//EN" "http://www.w3.org/Graphics/SVG/1.1/DTD/svg11.dtd">
<svg xmlns="http://www.w3.org/2000/svg" version="1.1" viewBox="0.00 0.00 216.00 198.00">
<path fill="#ffffff" d="
  M 0.00 0.00
  L 216.00 0.00
  L 216.00 198.00
  L 0.00 198.00
  L 0.00 0.00
  Z"
/>
<g stroke-width="2.00" fill="none" stroke-linecap="butt">
<path stroke="#987138" vector-effect="non-scaling-stroke" d="
  M 159.30 43.93
  Q 157.65 47.07 154.83 48.47"
/>
<path stroke="#abd7a3" vector-effect="non-scaling-stroke" d="
  M 154.83 48.47
  Q 132.91 27.40 102.17 26.61"
/>
<path stroke="#987138" vector-effect="non-scaling-stroke" d="
  M 102.17 26.61
  Q 101.93 25.00 102.18 24.19
  Q 102.31 23.73 102.13 23.30
  Q 101.71 22.24 102.10 20.50"
/>
<path stroke="#6e4561" vector-effect="non-scaling-stroke" d="
  M 185.04 101.50
  Q 180.56 102.70 175.50 101.56"
/>
<path stroke="#ed9995" vector-effect="non-scaling-stroke" d="
  M 102.17 26.61
  Q 98.98 25.60 93.75 26.23
  Q 67.36 29.43 50.52 46.52"
/>
<path stroke="#e67229" vector-effect="non-scaling-stroke" d="
  M 50.52 46.52
  Q 47.89 47.97 45.32 44.12"
/>
<path stroke="#ed9995" vector-effect="non-scaling-stroke" d="
  M 154.83 48.47
  Q 153.93 49.80 154.66 50.58
  Q 174.85 72.16 175.50 101.56"
/>
<path stroke="#80abcb" vector-effect="non-scaling-stroke" d="
  M 175.50 101.56
  L 174.38 101.67
  Q 173.85 101.71 173.84 102.25
  Q 173.19 130.75 153.42 151.58
  A 0.67 0.66 44.7 0 0 153.43 152.50
  L 156.22 155.33"
/>
<path stroke="#afd9eb" vector-effect="non-scaling-stroke" d="
  M 156.22 155.33
  Q 138.85 172.72 114.75 176.91
  Q 111.83 177.42 102.45 178.05"
/>
<path stroke="#80abcb" vector-effect="non-scaling-stroke" d="
  M 102.45 178.05
  Q 102.41 177.30 102.08 176.81
  Q 101.84 176.44 101.40 176.43
  Q 71.28 175.70 49.76 154.94
  Q 49.43 154.62 49.00 154.79
  Q 48.51 154.98 47.90 155.53"
/>
<path stroke="#afd9eb" vector-effect="non-scaling-stroke" d="
  M 47.90 155.53
  Q 26.55 133.71 25.68 102.64"
/>
<path stroke="#f8d994" vector-effect="non-scaling-stroke" d="
  M 25.68 102.64
  L 26.84 101.36
  A 1.38 1.33 -23.4 0 0 27.20 100.50
  Q 28.30 69.91 50.52 46.52"
/>
<path stroke="#3085b7" vector-effect="non-scaling-stroke" d="
  M 158.71 157.84
  L 156.22 155.33"
/>
<path stroke="#a8b380" vector-effect="non-scaling-stroke" d="
  M 25.68 102.64
  L 23.72 101.80
  Q 23.23 101.60 22.88 101.99
  Q 22.38 102.55 22.45 103.22"
/>
<path stroke="#3085b7" vector-effect="non-scaling-stroke" d="
  M 47.90 155.53
  Q 46.52 156.50 45.72 157.67"
/>
<path stroke="#3085b7" vector-effect="non-scaling-stroke" d="
  M 102.45 178.05
  L 102.32 181.36"
/>
</g>
<path fill="#f1b228" d="
  M 64.92 20.45
  Q 82.37 12.48 101.43 12.20
  Q 102.26 12.19 102.24 13.01
  L 102.20 15.46
  Q 102.18 16.31 101.33 16.33
  Q 67.03 17.03 42.87 40.54
  Q 41.84 41.55 40.82 40.53
  L 39.88 39.60
  Q 38.76 38.50 39.90 37.41
  Q 47.43 30.20 50.05 28.79
  C 53.56 26.90 56.47 24.29 60.24 22.58
  Q 62.58 21.52 64.92 20.45
  Z"
/>
<path fill="#56af46" d="
  M 159.30 43.93
  Q 157.65 47.07 154.83 48.47
  Q 132.91 27.40 102.17 26.61
  Q 101.93 25.00 102.18 24.19
  Q 102.31 23.73 102.13 23.30
  Q 101.71 22.24 102.10 20.50
  Q 131.01 20.10 154.09 38.89
  Q 156.91 41.18 159.30 43.93
  Z"
/>
<path fill="#da322a" d="
  M 102.10 20.50
  Q 101.71 22.24 102.13 23.30
  Q 102.31 23.73 102.18 24.19
  Q 101.93 25.00 102.17 26.61
  Q 98.98 25.60 93.75 26.23
  Q 67.36 29.43 50.52 46.52
  Q 47.89 47.97 45.32 44.12
  Q 63.67 27.93 86.00 23.03
  Q 87.58 22.68 94.07 22.00
  Q 98.01 21.59 102.10 20.50
  Z"
/>
<path fill="#ffffff" d="
  M 102.17 26.61
  Q 132.91 27.40 154.83 48.47
  Q 153.93 49.80 154.66 50.58
  Q 174.85 72.16 175.50 101.56
  L 174.38 101.67
  Q 173.85 101.71 173.84 102.25
  Q 173.19 130.75 153.42 151.58
  A 0.67 0.66 44.7 0 0 153.43 152.50
  L 156.22 155.33
  Q 138.85 172.72 114.75 176.91
  Q 111.83 177.42 102.45 178.05
  Q 102.41 177.30 102.08 176.81
  Q 101.84 176.44 101.40 176.43
  Q 71.28 175.70 49.76 154.94
  Q 49.43 154.62 49.00 154.79
  Q 48.51 154.98 47.90 155.53
  Q 26.55 133.71 25.68 102.64
  L 26.84 101.36
  A 1.38 1.33 -23.4 0 0 27.20 100.50
  Q 28.30 69.91 50.52 46.52
  Q 67.36 29.43 93.75 26.23
  Q 98.98 25.60 102.17 26.61
  Z"
/>
<g stroke-width="2.00" fill="none" stroke-linecap="butt">
<path stroke="#a4b137" vector-effect="non-scaling-stroke" d="
  M 146.48 56.87
  Q 144.73 59.92 140.97 61.60"
/>
<path stroke="#abd7a3" vector-effect="non-scaling-stroke" d="
  M 140.97 61.60
  Q 126.97 45.91 103.25 45.18
  Q 102.28 45.14 101.86 44.04"
/>
<path stroke="#2c836f" vector-effect="non-scaling-stroke" d="
  M 101.86 44.04
  L 102.13 39.13"
/>
<path stroke="#f8d994" vector-effect="non-scaling-stroke" d="
  M 140.97 61.60
  Q 156.35 79.73 156.99 101.26
  Q 157.00 101.51 157.48 101.72"
/>
<path stroke="#80abcb" vector-effect="non-scaling-stroke" d="
  M 157.48 101.72
  Q 156.71 101.57 156.02 101.68
  Q 155.51 101.76 155.50 102.28
  Q 154.86 123.27 140.30 138.72
  A 0.71 0.70 43.0 0 0 140.34 139.73
  L 143.34 142.47"
/>
<path stroke="#f8d994" vector-effect="non-scaling-stroke" d="
  M 143.34 142.47
  Q 139.25 146.45 135.52 149.04
  Q 124.59 156.62 111.26 158.82
  C 108.86 159.22 105.27 159.35 102.27 159.94"
/>
<path stroke="#80abcb" vector-effect="non-scaling-stroke" d="
  M 102.27 159.94
  Q 102.42 158.97 102.08 158.38
  Q 101.86 158.01 101.43 157.99
  Q 78.63 157.42 62.79 141.95
  Q 62.42 141.59 62.02 141.91
  Q 61.21 142.53 60.57 142.62"
/>
<path stroke="#ed9995" vector-effect="non-scaling-stroke" d="
  M 60.57 142.62
  Q 59.83 141.30 59.55 141.00
  Q 43.87 124.15 44.74 102.62"
/>
<path stroke="#f8d994" vector-effect="non-scaling-stroke" d="
  M 44.74 102.62
  Q 46.75 78.44 62.48 60.30"
/>
<path stroke="#798560" vector-effect="non-scaling-stroke" d="
  M 167.52 101.66
  L 157.48 101.72"
/>
<path stroke="#80abcb" vector-effect="non-scaling-stroke" d="
  M 101.86 44.04
  Q 77.54 44.68 62.48 60.30"
/>
<path stroke="#798560" vector-effect="non-scaling-stroke" d="
  M 62.48 60.30
  Q 59.61 59.92 59.07 57.29"
/>
<path stroke="#e67229" vector-effect="non-scaling-stroke" d="
  M 44.74 102.62
  Q 42.72 101.30 41.35 101.59
  Q 40.83 101.70 40.80 102.23
  L 40.73 103.64"
/>
<path stroke="#798560" vector-effect="non-scaling-stroke" d="
  M 102.27 159.94
  L 102.28 162.90"
/>
<path stroke="#798560" vector-effect="non-scaling-stroke" d="
  M 145.53 144.83
  Q 144.48 142.96 143.34 142.47"
/>
<path stroke="#6e4561" vector-effect="non-scaling-stroke" d="
  M 60.57 142.62
  Q 60.15 144.08 58.73 144.80"
/>
<path stroke="#987138" vector-effect="non-scaling-stroke" d="
  M 102.41 168.76
  L 102.68 171.98"
/>
</g>
<path fill="#56af46" d="
  M 146.48 56.87
  Q 144.73 59.92 140.97 61.60
  Q 126.97 45.91 103.25 45.18
  Q 102.28 45.14 101.86 44.04
  L 102.13 39.13
  Q 127.07 38.08 146.48 56.87
  Z"
/>
<path fill="#015797" d="
  M 102.13 39.13
  L 101.86 44.04
  Q 77.54 44.68 62.48 60.30
  Q 59.61 59.92 59.07 57.29
  Q 75.86 40.88 102.13 39.13
  Z"
/>
<path fill="#da322a" d="
  M 185.04 101.50
  Q 180.56 102.70 175.50 101.56
  Q 174.85 72.16 154.66 50.58
  Q 153.93 49.80 154.83 48.47
  Q 157.65 47.07 159.30 43.93
  Q 160.78 42.87 161.45 43.57
  Q 184.43 67.30 185.04 101.50
  Z"
/>
<path fill="#ffffff" d="
  M 101.86 44.04
  Q 102.28 45.14 103.25 45.18
  Q 126.97 45.91 140.97 61.60
  Q 156.35 79.73 156.99 101.26
  Q 157.00 101.51 157.48 101.72
  Q 156.71 101.57 156.02 101.68
  Q 155.51 101.76 155.50 102.28
  Q 154.86 123.27 140.30 138.72
  A 0.71 0.70 43.0 0 0 140.34 139.73
  L 143.34 142.47
  Q 139.25 146.45 135.52 149.04
  Q 124.59 156.62 111.26 158.82
  C 108.86 159.22 105.27 159.35 102.27 159.94
  Q 102.42 158.97 102.08 158.38
  Q 101.86 158.01 101.43 157.99
  Q 78.63 157.42 62.79 141.95
  Q 62.42 141.59 62.02 141.91
  Q 61.21 142.53 60.57 142.62
  Q 59.83 141.30 59.55 141.00
  Q 43.87 124.15 44.74 102.62
  Q 46.75 78.44 62.48 60.30
  Q 77.54 44.68 101.86 44.04
  Z"
/>
<g stroke-width="2.00" fill="none" stroke-linecap="butt">
<path stroke="#3085b7" vector-effect="non-scaling-stroke" d="
  M 133.44 69.88
  Q 131.56 72.62 128.91 74.46"
/>
<path stroke="#80abcb" vector-effect="non-scaling-stroke" d="
  M 128.91 74.46
  Q 118.17 64.12 102.88 63.37
  Q 101.76 63.32 102.23 62.03"
/>
<path stroke="#798560" vector-effect="non-scaling-stroke" d="
  M 102.23 62.03
  Q 102.73 60.12 102.25 57.51"
/>
<path stroke="#afd9eb" vector-effect="non-scaling-stroke" d="
  M 128.91 74.46
  Q 127.56 75.34 128.65 76.59
  Q 138.44 87.73 138.54 101.57"
/>
<path stroke="#80abcb" vector-effect="non-scaling-stroke" d="
  M 138.54 101.57
  L 137.53 101.65
  Q 137.02 101.68 137.00 102.21
  Q 136.58 116.03 127.21 125.78
  Q 126.85 126.16 127.21 126.54
  L 130.17 129.59"
/>
<path stroke="#abd7a3" vector-effect="non-scaling-stroke" d="
  M 130.17 129.59
  Q 118.92 140.80 103.00 141.31
  Q 102.61 141.32 102.24 140.51"
/>
<path stroke="#80abcb" vector-effect="non-scaling-stroke" d="
  M 102.24 140.51
  Q 102.30 140.09 102.02 139.85
  Q 101.84 139.69 101.60 139.69
  Q 86.51 139.31 75.80 128.97
  Q 75.44 128.62 74.99 128.87
  L 73.78 129.53"
/>
<path stroke="#afd9eb" vector-effect="non-scaling-stroke" d="
  M 73.78 129.53
  Q 64.61 120.01 62.70 106.50
  Q 62.23 103.19 63.06 101.60"
/>
<path stroke="#f8d994" vector-effect="non-scaling-stroke" d="
  M 102.23 62.03
  Q 99.85 62.39 97.52 62.70
  Q 85.05 64.32 76.21 72.06
  C 74.81 73.28 74.70 75.06 73.45 76.52
  Q 64.58 86.95 63.93 100.75
  Q 63.90 101.31 63.06 101.60"
/>
<path stroke="#a8b380" vector-effect="non-scaling-stroke" d="
  M 63.06 101.60
  L 58.52 101.59"
/>
<path stroke="#3085b7" vector-effect="non-scaling-stroke" d="
  M 148.41 101.54
  L 138.54 101.57"
/>
<path stroke="#3085b7" vector-effect="non-scaling-stroke" d="
  M 73.78 129.53
  Q 72.71 130.12 71.82 131.30"
/>
<path stroke="#2c836f" vector-effect="non-scaling-stroke" d="
  M 102.24 140.51
  L 102.53 144.36"
/>
<path stroke="#2c836f" vector-effect="non-scaling-stroke" d="
  M 132.21 132.11
  Q 131.27 129.97 130.17 129.59"
/>
</g>
<path fill="#f1b228" d="
  M 45.32 44.12
  Q 47.89 47.97 50.52 46.52
  Q 28.30 69.91 27.20 100.50
  A 1.38 1.33 -23.4 0 1 26.84 101.36
  L 25.68 102.64
  L 23.72 101.80
  Q 23.23 101.60 22.88 101.99
  Q 22.38 102.55 22.45 103.22
  L 22.36 102.74
  A 1.20 1.17 12.3 0 0 21.86 101.98
  Q 20.78 101.24 20.81 100.25
  Q 21.79 66.05 45.32 44.12
  Z"
/>
<path fill="#5eb3d7" d="
  M 134.72 67.49
  C 126.16 59.08 114.74 54.50 102.56 54.33
  Q 102.23 54.33 102.22 53.99
  L 102.19 47.99
  Q 102.19 47.75 102.43 47.75
  Q 123.53 48.11 139.34 62.61
  Q 140.28 63.48 139.39 64.40
  L 136.46 67.46
  Q 135.60 68.35 134.72 67.49
  Z"
/>
<path fill="#56af46" d="
  M 30.06 98.03
  Q 31.85 70.30 50.65 51.02
  Q 51.28 50.37 51.91 51.02
  L 55.15 54.29
  A 1.07 1.06 -45.6 0 1 55.16 55.77
  Q 37.14 74.64 36.51 100.64
  Q 36.48 101.60 35.53 101.61
  L 30.99 101.63
  Q 30.04 101.64 30.01 100.69
  Q 29.96 99.45 30.06 98.03
  Z"
/>
<path fill="#f1b228" d="
  M 167.52 101.66
  L 157.48 101.72
  Q 157.00 101.51 156.99 101.26
  Q 156.35 79.73 140.97 61.60
  Q 144.73 59.92 146.48 56.87
  Q 147.79 55.74 149.54 57.69
  Q 166.30 76.45 166.60 101.06
  Q 166.61 101.53 167.08 101.60
  L 167.52 101.66
  Z"
/>
<path fill="#015797" d="
  M 133.44 69.88
  Q 131.56 72.62 128.91 74.46
  Q 118.17 64.12 102.88 63.37
  Q 101.76 63.32 102.23 62.03
  Q 102.73 60.12 102.25 57.51
  Q 105.32 56.79 110.49 57.84
  Q 123.92 60.59 133.44 69.88
  Z"
/>
<path fill="#f1b228" d="
  M 59.07 57.29
  Q 59.61 59.92 62.48 60.30
  Q 46.75 78.44 44.74 102.62
  Q 42.72 101.30 41.35 101.59
  Q 40.83 101.70 40.80 102.23
  L 40.73 103.64
  Q 39.16 100.43 39.28 98.50
  Q 40.71 74.82 56.85 57.78
  Q 57.19 57.42 57.67 57.51
  Q 58.53 57.68 59.07 57.29
  Z"
/>
<path fill="#f1b228" d="
  M 102.25 57.51
  Q 102.73 60.12 102.23 62.03
  Q 99.85 62.39 97.52 62.70
  Q 85.05 64.32 76.21 72.06
  C 74.81 73.28 74.70 75.06 73.45 76.52
  Q 64.58 86.95 63.93 100.75
  Q 63.90 101.31 63.06 101.60
  L 58.52 101.59
  Q 57.57 101.00 57.60 99.99
  Q 58.16 84.09 68.97 71.75
  C 70.27 70.26 71.87 70.54 73.20 69.32
  C 80.09 63.00 86.63 60.24 95.34 58.82
  Q 98.78 58.26 102.25 57.51
  Z"
/>
<path fill="#ffffff" d="
  M 102.23 62.03
  Q 101.76 63.32 102.88 63.37
  Q 118.17 64.12 128.91 74.46
  Q 127.56 75.34 128.65 76.59
  Q 138.44 87.73 138.54 101.57
  L 137.53 101.65
  Q 137.02 101.68 137.00 102.21
  Q 136.58 116.03 127.21 125.78
  Q 126.85 126.16 127.21 126.54
  L 130.17 129.59
  Q 118.92 140.80 103.00 141.31
  Q 102.61 141.32 102.24 140.51
  Q 102.30 140.09 102.02 139.85
  Q 101.84 139.69 101.60 139.69
  Q 86.51 139.31 75.80 128.97
  Q 75.44 128.62 74.99 128.87
  L 73.78 129.53
  Q 64.61 120.01 62.70 106.50
  Q 62.23 103.19 63.06 101.60
  Q 63.90 101.31 63.93 100.75
  Q 64.58 86.95 73.45 76.52
  C 74.70 75.06 74.81 73.28 76.21 72.06
  Q 85.05 64.32 97.52 62.70
  Q 99.85 62.39 102.23 62.03
  Z"
/>
<g stroke-width="2.00" fill="none" stroke-linecap="butt">
<path stroke="#2c836f" vector-effect="non-scaling-stroke" d="
  M 130.82 101.98
  L 118.80 101.67"
/>
<path stroke="#abd7a3" vector-effect="non-scaling-stroke" d="
  M 118.80 101.67
  Q 120.48 101.73 120.32 100.51
  Q 119.44 93.88 115.60 89.52
  Q 115.24 89.11 115.35 88.56
  L 115.50 87.81
  Q 115.63 87.18 115.12 86.78
  Q 109.61 82.50 101.69 81.07"
/>
<path stroke="#a4b137" vector-effect="non-scaling-stroke" d="
  M 101.69 81.07
  Q 102.81 78.24 102.09 75.77"
/>
<path stroke="#f8d994" vector-effect="non-scaling-stroke" d="
  M 101.69 81.07
  Q 98.17 80.42 92.70 82.96
  Q 89.16 84.60 87.63 87.48
  Q 86.14 90.29 86.10 90.36
  Q 82.71 95.85 81.15 103.27"
/>
<path stroke="#a8b380" vector-effect="non-scaling-stroke" d="
  M 81.15 103.27
  Q 80.16 101.49 77.57 101.97"
/>
<path stroke="#3085b7" vector-effect="non-scaling-stroke" d="
  M 119.47 119.06
  L 117.21 116.58"
/>
<path stroke="#80abcb" vector-effect="non-scaling-stroke" d="
  M 118.80 101.67
  Q 118.51 107.32 114.26 113.00
  Q 113.99 113.36 114.30 113.67
  L 117.21 116.58"
/>
<path stroke="#afd9eb" vector-effect="non-scaling-stroke" d="
  M 117.21 116.58
  Q 111.05 122.57 102.19 122.85"
/>
<path stroke="#80abcb" vector-effect="non-scaling-stroke" d="
  M 102.19 122.85
  Q 102.42 122.37 102.10 121.76
  Q 101.89 121.35 101.43 121.32
  Q 93.84 120.81 88.87 116.03
  Q 88.50 115.68 88.04 115.89
  Q 87.51 116.13 87.03 116.60"
/>
<path stroke="#afd9eb" vector-effect="non-scaling-stroke" d="
  M 87.03 116.60
  Q 80.89 110.48 81.15 103.27"
/>
<path stroke="#3085b7" vector-effect="non-scaling-stroke" d="
  M 87.03 116.60
  Q 85.16 117.74 84.73 118.78"
/>
<path stroke="#3085b7" vector-effect="non-scaling-stroke" d="
  M 102.19 122.85
  Q 102.48 124.90 101.92 127.12"
/>
</g>
<path fill="#5eb3d7" d="
  M 101.04 67.35
  Q 102.20 67.27 102.21 68.43
  L 102.24 70.51
  Q 102.25 71.43 101.34 71.46
  Q 90.08 71.82 81.32 79.78
  Q 80.77 80.28 80.23 79.76
  L 78.59 78.16
  A 0.93 0.92 44.8 0 1 78.58 76.84
  Q 87.11 68.31 101.04 67.35
  Z"
/>
<path fill="#5eb3d7" d="
  M 148.41 101.54
  L 138.54 101.57
  Q 138.44 87.73 128.65 76.59
  Q 127.56 75.34 128.91 74.46
  Q 131.56 72.62 133.44 69.88
  Q 134.96 68.76 136.37 70.38
  Q 148.02 83.70 148.41 101.54
  Z"
/>
<path fill="#56af46" d="
  M 130.82 101.98
  L 118.80 101.67
  Q 120.48 101.73 120.32 100.51
  Q 119.44 93.88 115.60 89.52
  Q 115.24 89.11 115.35 88.56
  L 115.50 87.81
  Q 115.63 87.18 115.12 86.78
  Q 109.61 82.50 101.69 81.07
  Q 102.81 78.24 102.09 75.77
  Q 102.66 75.37 103.01 75.39
  Q 112.74 75.71 119.85 82.18
  Q 120.22 82.52 120.70 82.39
  Q 122.26 81.99 123.42 83.55
  Q 129.21 91.38 130.82 101.98
  Z"
/>
<path fill="#f1b228" d="
  M 102.09 75.77
  Q 102.81 78.24 101.69 81.07
  Q 98.17 80.42 92.70 82.96
  Q 89.16 84.60 87.63 87.48
  Q 86.14 90.29 86.10 90.36
  Q 82.71 95.85 81.15 103.27
  Q 80.16 101.49 77.57 101.97
  Q 76.77 101.90 76.30 101.32
  Q 75.89 100.83 75.94 100.17
  Q 76.66 91.16 81.89 84.86
  C 83.07 83.44 84.95 83.26 86.43 82.08
  Q 92.89 76.91 101.61 76.41
  A 0.44 0.44 0.0 0 0 102.01 76.08
  L 102.09 75.77
  Z"
/>
<path fill="#ffffff" d="
  M 101.69 81.07
  Q 109.61 82.50 115.12 86.78
  Q 115.63 87.18 115.50 87.81
  L 115.35 88.56
  Q 115.24 89.11 115.60 89.52
  Q 119.44 93.88 120.32 100.51
  Q 120.48 101.73 118.80 101.67
  Q 118.51 107.32 114.26 113.00
  Q 113.99 113.36 114.30 113.67
  L 117.21 116.58
  Q 111.05 122.57 102.19 122.85
  Q 102.42 122.37 102.10 121.76
  Q 101.89 121.35 101.43 121.32
  Q 93.84 120.81 88.87 116.03
  Q 88.50 115.68 88.04 115.89
  Q 87.51 116.13 87.03 116.60
  Q 80.89 110.48 81.15 103.27
  Q 82.71 95.85 86.10 90.36
  Q 86.14 90.29 87.63 87.48
  Q 89.16 84.60 92.70 82.96
  Q 98.17 80.42 101.69 81.07
  Z"
/>
<path fill="#5eb3d7" d="
  M 31.99 150.77
  Q 35.35 155.69 40.93 161.32
  Q 41.62 162.01 40.96 162.73
  L 39.93 163.85
  Q 39.42 164.40 38.90 163.87
  C 22.73 147.66 13.58 125.48 13.15 102.66
  Q 13.12 101.34 14.44 101.32
  L 15.20 101.31
  Q 16.59 101.28 16.62 102.67
  Q 17.11 124.81 27.37 143.58
  C 28.72 146.06 30.43 148.49 31.99 150.77
  Z"
/>
<path fill="#015797" d="
  M 185.04 101.50
  L 186.07 101.70
  Q 186.59 101.81 186.58 102.34
  Q 186.29 123.85 176.12 142.35
  A 0.88 0.88 0.0 0 0 176.27 143.40
  L 199.16 166.32
  A 0.63 0.62 45.3 0 1 199.16 167.21
  L 184.04 182.31
  A 0.60 0.59 -44.7 0 1 183.19 182.31
  L 158.71 157.84
  L 156.22 155.33
  L 153.43 152.50
  A 0.67 0.66 44.7 0 1 153.42 151.58
  Q 173.19 130.75 173.84 102.25
  Q 173.85 101.71 174.38 101.67
  L 175.50 101.56
  Q 180.56 102.70 185.04 101.50
  Z"
/>
<path fill="#da322a" d="
  M 44.74 102.62
  Q 43.87 124.15 59.55 141.00
  Q 59.83 141.30 60.57 142.62
  Q 60.15 144.08 58.73 144.80
  Q 48.39 134.37 43.63 119.87
  Q 40.90 111.59 40.73 103.64
  L 40.80 102.23
  Q 40.83 101.70 41.35 101.59
  Q 42.72 101.30 44.74 102.62
  Z"
/>
<path fill="#015797" d="
  M 50.50 101.63
  L 52.67 101.54
  Q 53.24 101.52 53.25 102.10
  Q 53.50 121.26 66.98 135.47
  Q 67.60 136.11 66.98 136.75
  L 65.80 137.97
  Q 65.33 138.46 64.86 137.97
  Q 50.62 123.12 50.01 102.15
  Q 50.00 101.64 50.50 101.63
  Z"
/>
<path fill="#5eb3d7" d="
  M 58.52 101.59
  L 63.06 101.60
  Q 62.23 103.19 62.70 106.50
  Q 64.61 120.01 73.78 129.53
  Q 72.71 130.12 71.82 131.30
  Q 66.67 126.99 63.63 120.47
  Q 59.55 111.72 59.18 102.49
  Q 59.16 101.96 58.52 101.59
  Z"
/>
<path fill="#015797" d="
  M 138.54 101.57
  L 148.41 101.54
  Q 149.10 101.44 149.53 101.70
  Q 149.91 101.92 149.89 102.37
  Q 149.26 121.45 136.40 134.81
  A 0.66 0.66 0.0 0 1 135.40 134.76
  Q 133.72 132.61 132.21 132.11
  Q 131.27 129.97 130.17 129.59
  L 127.21 126.54
  Q 126.85 126.16 127.21 125.78
  Q 136.58 116.03 137.00 102.21
  Q 137.02 101.68 137.53 101.65
  L 138.54 101.57
  Z"
/>
<path fill="#5eb3d7" d="
  M 25.68 102.64
  Q 26.55 133.71 47.90 155.53
  Q 46.52 156.50 45.72 157.67
  Q 23.51 135.10 22.45 103.22
  Q 22.38 102.55 22.88 101.99
  Q 23.23 101.60 23.72 101.80
  L 25.68 102.64
  Z"
/>
<path fill="#5eb3d7" d="
  M 81.15 103.27
  Q 80.89 110.48 87.03 116.60
  Q 85.16 117.74 84.73 118.78
  Q 78.05 111.76 77.57 101.97
  Q 80.16 101.49 81.15 103.27
  Z"
/>
<path fill="#015797" d="
  M 118.80 101.67
  L 130.82 101.98
  Q 131.97 112.91 123.19 122.00
  A 0.42 0.42 0.0 0 1 122.60 122.02
  L 119.47 119.06
  L 117.21 116.58
  L 114.30 113.67
  Q 113.99 113.36 114.26 113.00
  Q 118.51 107.32 118.80 101.67
  Z"
/>
<path fill="#015797" d="
  M 157.48 101.72
  L 167.52 101.66
  Q 167.72 101.64 167.94 101.76
  Q 168.30 101.95 168.29 102.36
  Q 167.53 128.99 149.45 147.72
  A 0.76 0.76 0.0 0 1 148.36 147.73
  L 145.53 144.83
  Q 144.48 142.96 143.34 142.47
  L 140.34 139.73
  A 0.71 0.70 43.0 0 1 140.30 138.72
  Q 154.86 123.27 155.50 102.28
  Q 155.51 101.76 156.02 101.68
  Q 156.71 101.57 157.48 101.72
  Z"
/>
<path fill="#015797" d="
  M 102.19 122.85
  Q 102.48 124.90 101.92 127.12
  Q 92.65 128.19 84.51 120.91
  Q 83.91 120.37 84.06 119.90
  Q 84.21 119.44 84.73 118.78
  Q 85.16 117.74 87.03 116.60
  Q 87.51 116.13 88.04 115.89
  Q 88.50 115.68 88.87 116.03
  Q 93.84 120.81 101.43 121.32
  Q 101.89 121.35 102.10 121.76
  Q 102.42 122.37 102.19 122.85
  Z"
/>
<path fill="#5eb3d7" d="
  M 117.21 116.58
  L 119.47 119.06
  Q 116.21 121.93 113.84 123.08
  Q 109.98 124.94 101.92 127.12
  Q 102.48 124.90 102.19 122.85
  Q 111.05 122.57 117.21 116.58
  Z"
/>
<path fill="#f1b228" d="
  M 82.56 122.70
  C 87.87 127.73 94.46 130.25 102.00 130.44
  Q 102.15 130.45 102.16 130.59
  Q 102.42 133.89 101.98 136.82
  Q 101.97 136.89 101.89 136.89
  Q 88.15 136.70 77.98 127.44
  A 1.07 1.07 0.0 0 1 77.93 125.91
  L 80.99 122.73
  Q 81.76 121.94 82.56 122.70
  Z"
/>
<path fill="#015797" d="
  M 102.24 140.51
  L 102.53 144.36
  Q 102.40 145.18 102.02 145.66
  Q 101.64 146.12 101.05 146.09
  Q 83.60 145.27 71.37 133.77
  Q 71.02 133.44 71.10 132.97
  Q 71.26 132.05 71.82 131.30
  Q 72.71 130.12 73.78 129.53
  L 74.99 128.87
  Q 75.44 128.62 75.80 128.97
  Q 86.51 139.31 101.60 139.69
  Q 101.84 139.69 102.02 139.85
  Q 102.30 140.09 102.24 140.51
  Z"
/>
<path fill="#56af46" d="
  M 130.17 129.59
  Q 131.27 129.97 132.21 132.11
  Q 120.00 143.97 102.53 144.36
  L 102.24 140.51
  Q 102.61 141.32 103.00 141.31
  Q 118.92 140.80 130.17 129.59
  Z"
/>
<path fill="#015797" d="
  M 102.77 150.52
  C 115.23 150.35 126.78 145.45 136.13 136.78
  Q 136.77 136.18 137.41 136.80
  L 138.22 137.59
  Q 138.98 138.33 138.21 139.06
  Q 123.42 153.08 102.86 153.57
  Q 102.34 153.58 102.32 153.07
  L 102.25 151.06
  Q 102.24 150.52 102.77 150.52
  Z"
/>
<path fill="#015797" d="
  M 102.27 159.94
  L 102.28 162.90
  Q 102.47 164.49 101.50 164.47
  Q 76.74 164.05 58.46 146.86
  Q 58.09 146.51 58.18 146.00
  Q 58.29 145.39 58.73 144.80
  Q 60.15 144.08 60.57 142.62
  Q 61.21 142.53 62.02 141.91
  Q 62.42 141.59 62.79 141.95
  Q 78.63 157.42 101.43 157.99
  Q 101.86 158.01 102.08 158.38
  Q 102.42 158.97 102.27 159.94
  Z"
/>
<path fill="#f1b228" d="
  M 143.34 142.47
  Q 144.48 142.96 145.53 144.83
  Q 127.75 162.39 102.28 162.90
  L 102.27 159.94
  C 105.27 159.35 108.86 159.22 111.26 158.82
  Q 124.59 156.62 135.52 149.04
  Q 139.25 146.45 143.34 142.47
  Z"
/>
<path fill="#56af46" d="
  M 102.41 168.76
  L 102.68 171.98
  Q 102.34 172.82 101.78 173.29
  Q 101.29 173.69 100.67 173.67
  C 82.19 173.06 64.78 166.08 51.73 153.15
  Q 51.15 152.57 51.72 151.99
  L 55.30 148.35
  Q 55.76 147.89 56.22 148.34
  C 68.56 160.23 83.71 166.65 101.24 167.18
  Q 101.71 167.19 101.97 167.55
  Q 102.28 167.98 102.41 168.76
  Z"
/>
<path fill="#da322a" d="
  M 102.68 171.98
  L 102.41 168.76
  Q 129.55 168.47 148.95 149.88
  Q 149.69 149.17 150.44 149.87
  L 151.18 150.56
  Q 151.97 151.30 151.19 152.05
  Q 131.09 171.30 102.68 171.98
  Z"
/>
<path fill="#015797" d="
  M 102.45 178.05
  L 102.32 181.36
  Q 102.24 182.87 100.99 182.84
  Q 68.55 181.90 45.34 159.72
  Q 44.96 159.35 45.10 158.84
  Q 45.23 158.32 45.72 157.67
  Q 46.52 156.50 47.90 155.53
  Q 48.51 154.98 49.00 154.79
  Q 49.43 154.62 49.76 154.94
  Q 71.28 175.70 101.40 176.43
  Q 101.84 176.44 102.08 176.81
  Q 102.41 177.30 102.45 178.05
  Z"
/>
<path fill="#5eb3d7" d="
  M 156.22 155.33
  L 158.71 157.84
  Q 135.28 180.64 102.32 181.36
  L 102.45 178.05
  Q 111.83 177.42 114.75 176.91
  Q 138.85 172.72 156.22 155.33
  Z"
/>
</svg>
