<svg xmlns="http://www.w3.org/2000/svg" width="280" height="280" viewBox="0 0 280 280" version="1.1"><path d="M 60.344 1.029 C 55.348 2.032, 49.110 5.094, 46.867 7.644 C 45.968 8.665, 44.168 11.525, 42.867 14 C 40.539 18.426, 40.495 19.035, 40.200 51.105 L 39.900 83.710 45.338 84.271 C 51.870 84.945, 56.238 87.012, 61.220 91.784 L 64.940 95.347 70.223 90.424 C 73.128 87.716, 79.958 81.675, 85.400 77 C 90.841 72.325, 102.489 62.200, 111.283 54.500 C 120.077 46.800, 128.370 39.593, 129.710 38.485 L 132.148 36.470 129.575 31.485 C 125.902 24.368, 124.649 16.452, 126.008 8.956 C 126.614 5.612, 127.350 2.252, 127.642 1.490 C 128.088 0.327, 123.067 0.112, 96.337 0.150 C 78.827 0.175, 62.630 0.570, 60.344 1.029 M 195.274 1.272 C 195.596 2.111, 196.381 5.449, 197.019 8.691 C 199.611 21.867, 192.925 37.339, 181.309 45.046 L 179.117 46.500 188.504 68.323 C 193.667 80.326, 198.634 92.092, 199.542 94.470 C 201.152 98.686, 201.330 98.811, 206.684 99.480 C 217.036 100.773, 226.279 104.432, 236.250 111.182 L 242 115.075 242 67.663 C 242 15.915, 241.879 14.684, 236.211 8.635 C 234.720 7.044, 231.025 4.608, 228 3.222 C 223.201 1.024, 220.727 0.641, 208.594 0.224 C 196.415 -0.195, 194.761 -0.064, 195.274 1.272 M 128.465 55.810 C 121.846 61.689, 106.208 75.394, 93.715 86.264 L 71 106.029 71 111.937 C 71 117.724, 71.067 117.866, 74.250 118.877 C 76.038 119.445, 89.650 123.547, 104.500 127.993 C 119.350 132.438, 132.740 136.486, 134.255 136.987 C 136.819 137.836, 137.158 137.608, 139.126 133.700 C 143.791 124.438, 152.539 115.368, 163.240 108.700 C 169.511 104.792, 169.946 104.291, 169.494 101.500 C 168.538 95.596, 162 52.144, 162 51.692 C 162 51.438, 159.612 50.932, 156.694 50.567 C 153.775 50.203, 149.005 48.801, 146.094 47.452 C 143.183 46.104, 140.734 45.027, 140.651 45.060 C 140.568 45.092, 135.084 49.930, 128.465 55.810 M 61.977 134.908 C 57.223 139.734, 50.561 142.781, 43.752 143.245 L 40.004 143.500 40.012 164 C 40.019 183.448, 40.141 184.757, 42.377 189.500 C 45.233 195.555, 47.953 198.178, 54.512 201.201 C 59.427 203.466, 60.111 203.504, 101.185 203.791 L 142.870 204.082 139.935 198.791 C 135.696 191.150, 132.152 179.262, 131.390 170.128 L 130.729 162.195 118.114 155.691 C 85.534 138.892, 67.826 130.013, 67.192 130.158 C 66.812 130.246, 64.465 132.383, 61.977 134.908 M 55.032 232.309 C 49.385 234.109, 42.459 241.605, 40.598 247.932 C 38.611 254.686, 38.608 256.319, 40.575 262.941 C 42.547 269.582, 49.578 276.985, 55.616 278.778 C 63.778 281.202, 73.328 279.728, 78.235 275.287 C 79.929 273.755, 80.265 273.864, 83.507 277.007 C 85.412 278.853, 87.276 280.058, 87.649 279.684 C 88.023 279.311, 86.714 277.626, 84.740 275.940 L 81.152 272.875 84.326 268.188 C 87.193 263.954, 87.500 262.773, 87.500 256 C 87.500 247.567, 85.735 242.889, 80.625 237.779 C 74.423 231.577, 64.191 229.391, 55.032 232.309 M 113.500 231.930 C 112.400 232.389, 110.600 233.764, 109.500 234.985 C 107.633 237.059, 107.500 238.614, 107.500 258.353 L 107.500 279.500 112.250 279.805 L 117 280.110 117 269.555 L 117 259 126 259 L 135 259 135 254.500 L 135 250 126 250 L 117 250 117 245 L 117 240 129.057 240 L 141.115 240 140.807 235.750 L 140.500 231.500 128 231.298 C 121.125 231.188, 114.600 231.472, 113.500 231.930 M 57.367 233.427 C 47.947 236.374, 41 245.628, 41 255.228 C 41 273.894, 61.977 284.864, 77 274.055 C 78.244 273.160, 77.304 271.875, 71.500 266.527 C 67.650 262.981, 65.049 260.061, 65.720 260.039 C 66.390 260.018, 69.478 262.363, 72.580 265.250 C 75.682 268.137, 78.932 270.500, 79.801 270.500 C 82.476 270.500, 86.270 261.733, 86.215 255.675 C 86.123 245.412, 80.680 237.521, 71.264 233.998 C 65.150 231.710, 63.121 231.627, 57.367 233.427 M 167.721 233.250 C 166.317 234.306, 157.684 255.679, 150.959 274.750 L 149.108 280 153.896 280 C 158.664 280, 158.689 279.983, 159.945 275.750 C 160.639 273.413, 161.570 271.050, 162.015 270.500 C 162.485 269.918, 166.784 269.632, 172.300 269.816 L 181.777 270.132 183.044 274.657 C 184.481 279.788, 185.176 280.250, 190.816 279.813 L 194.860 279.500 189.914 266.500 C 176.389 230.953, 176.929 232, 172.120 232 C 170.614 232, 168.635 232.563, 167.721 233.250 M 212.838 233.067 C 207.801 235.037, 207 238.787, 207 260.401 L 207 280 217.750 279.994 C 230.506 279.988, 234.903 278.943, 238.869 274.978 C 244.348 269.498, 243.600 258.597, 237.556 255.844 C 235.074 254.712, 235.059 254.647, 236.975 253.305 C 238.056 252.548, 239.463 250.188, 240.100 248.061 C 241.089 244.759, 240.984 243.644, 239.379 240.412 C 236.366 234.346, 233.468 232.850, 223.874 232.410 C 219.268 232.199, 214.302 232.495, 212.838 233.067 M 217.250 240.632 C 216.492 240.956, 216 243.102, 216 246.083 L 216 251 221.566 251 C 224.627 251, 228.002 250.534, 229.066 249.965 C 231.281 248.779, 231.719 243.826, 229.750 242.234 C 228.276 241.043, 219.054 239.861, 217.250 240.632 M 168.339 252.505 L 165.253 261 171.733 261 C 177.509 261, 178.137 260.810, 177.504 259.250 C 177.114 258.288, 175.968 255.146, 174.958 252.269 C 171.791 243.251, 171.700 243.255, 168.339 252.505 M 216 265.614 L 216 272.229 223.033 271.709 C 231.214 271.105, 233 269.983, 233 265.449 C 233 260.324, 230.932 259, 222.929 259 L 216 259 216 265.614" stroke="none" fill="#0a5386" fill-rule="evenodd"/><path d="M 0 140 L 0 280 29.250 279.898 C 52.224 279.818, 57.749 279.558, 55 278.686 C 49.529 276.952, 42.437 269.211, 40.575 262.941 C 38.608 256.319, 38.611 254.686, 40.598 247.932 C 45.582 230.987, 68.117 225.271, 80.625 237.779 C 85.735 242.889, 87.500 247.567, 87.500 256 C 87.500 262.758, 87.189 263.959, 84.358 268.140 L 81.216 272.781 85.142 276.390 C 89.058 279.992, 89.089 280, 98.284 279.999 L 107.500 279.999 107.500 258.521 L 107.500 237.044 110.270 234.272 C 113.029 231.512, 113.099 231.500, 126.770 231.500 L 140.500 231.500 140.807 235.750 L 141.115 240 129.057 240 L 117 240 117 245 L 117 250 126 250 L 135 250 135 254.500 L 135 259 126 259 L 117 259 117 269.500 L 117 280 133.094 280 C 147.570 280, 149.236 279.824, 149.670 278.250 C 149.935 277.288, 153.831 266.836, 158.326 255.024 C 165.500 236.175, 166.819 233.436, 169.110 232.630 C 170.545 232.126, 172.855 231.998, 174.243 232.346 C 177.106 233.065, 178.052 235.078, 188.411 262.500 L 194.834 279.500 200.917 279.798 L 207 280.095 207 260.449 C 207 244.555, 207.304 240.162, 208.591 237.448 C 210.724 232.955, 215.104 231.568, 224.841 232.304 C 233.469 232.957, 236.522 234.660, 239.379 240.412 C 240.984 243.644, 241.089 244.759, 240.100 248.061 C 239.463 250.188, 238.056 252.548, 236.975 253.305 C 235.059 254.647, 235.074 254.712, 237.556 255.844 C 241.008 257.416, 243.314 263.180, 242.476 268.140 C 241.702 272.726, 237.309 277.556, 232.685 278.907 C 230.551 279.531, 237.915 279.782, 255 279.669 L 280.500 279.500 280.753 139.750 L 281.007 0 249.753 0.116 C 232.564 0.180, 219.400 0.431, 220.500 0.673 C 225.834 1.851, 233.037 5.443, 235.820 8.314 C 241.917 14.605, 242 15.401, 242 67.663 L 242 115.075 236.250 111.182 C 226.279 104.432, 217.036 100.773, 206.684 99.480 C 201.330 98.811, 201.152 98.686, 199.542 94.470 C 198.634 92.092, 193.667 80.326, 188.504 68.323 L 179.117 46.500 181.309 45.046 C 185.501 42.265, 191.514 35.401, 193.763 30.830 C 198.036 22.142, 198.654 14.315, 195.900 3.750 L 194.923 0 161.500 0 L 128.077 0 127.119 3.750 C 124.333 14.655, 125.045 22.680, 129.580 31.485 L 132.148 36.470 129.710 38.485 C 128.370 39.593, 120.077 46.800, 111.283 54.500 C 102.489 62.200, 90.841 72.325, 85.400 77 C 79.958 81.675, 73.128 87.716, 70.223 90.424 L 64.940 95.347 61.220 91.784 C 56.238 87.012, 51.870 84.945, 45.338 84.271 L 39.900 83.710 40.200 51.105 C 40.495 19.035, 40.539 18.426, 42.867 14 C 44.168 11.525, 45.968 8.665, 46.867 7.644 C 49.117 5.086, 55.361 2.027, 60.344 1.041 C 62.904 0.535, 52.115 0.177, 32.250 0.110 L 0 0 0 140 M 0.486 140.500 C 0.486 217.500, 0.605 248.852, 0.750 210.172 C 0.895 171.491, 0.895 108.491, 0.750 70.172 C 0.605 31.852, 0.486 63.500, 0.486 140.500 M 128.465 55.810 C 121.846 61.689, 106.208 75.394, 93.715 86.264 L 71 106.029 71 111.937 C 71 117.724, 71.067 117.866, 74.250 118.877 C 76.038 119.445, 89.650 123.547, 104.500 127.993 C 119.350 132.438, 132.740 136.486, 134.255 136.987 C 136.819 137.836, 137.158 137.608, 139.126 133.700 C 143.791 124.438, 152.539 115.368, 163.240 108.700 C 169.511 104.792, 169.946 104.291, 169.494 101.500 C 168.538 95.596, 162 52.144, 162 51.692 C 162 51.438, 159.612 50.932, 156.694 50.567 C 153.775 50.203, 149.005 48.801, 146.094 47.452 C 143.183 46.104, 140.734 45.027, 140.651 45.060 C 140.568 45.092, 135.084 49.930, 128.465 55.810 M 61.977 134.908 C 57.223 139.734, 50.561 142.781, 43.752 143.245 L 40.004 143.500 40.012 164 C 40.019 183.448, 40.141 184.757, 42.377 189.500 C 45.233 195.555, 47.953 198.178, 54.512 201.201 C 59.427 203.466, 60.111 203.504, 101.185 203.791 L 142.870 204.082 139.935 198.791 C 135.696 191.150, 132.152 179.262, 131.390 170.128 L 130.729 162.195 118.114 155.691 C 85.534 138.892, 67.826 130.013, 67.192 130.158 C 66.812 130.246, 64.465 132.383, 61.977 134.908 M 57.367 233.427 C 47.947 236.374, 41 245.628, 41 255.228 C 41 273.894, 61.977 284.864, 77 274.055 C 78.244 273.160, 77.304 271.875, 71.500 266.527 C 67.650 262.981, 65.049 260.061, 65.720 260.039 C 66.390 260.018, 69.478 262.363, 72.580 265.250 C 75.682 268.137, 78.932 270.500, 79.801 270.500 C 82.476 270.500, 86.270 261.733, 86.215 255.675 C 86.123 245.412, 80.680 237.521, 71.264 233.998 C 65.150 231.710, 63.121 231.627, 57.367 233.427 M 217.250 240.632 C 216.492 240.956, 216 243.102, 216 246.083 L 216 251 221.566 251 C 224.627 251, 228.002 250.534, 229.066 249.965 C 231.281 248.779, 231.719 243.826, 229.750 242.234 C 228.276 241.043, 219.054 239.861, 217.250 240.632 M 168.339 252.505 L 165.253 261 171.733 261 C 177.509 261, 178.137 260.810, 177.504 259.250 C 177.114 258.288, 175.968 255.146, 174.958 252.269 C 171.791 243.251, 171.700 243.255, 168.339 252.505 M 216 265.614 L 216 272.229 223.033 271.709 C 231.214 271.105, 233 269.983, 233 265.449 C 233 260.324, 230.932 259, 222.929 259 L 216 259 216 265.614 M 162.056 270.500 C 161.196 271.622, 159 277.838, 159 279.149 C 159 279.617, 164.809 280, 171.908 280 L 184.816 280 183.238 275.065 L 181.660 270.129 172.241 269.815 C 166.749 269.631, 162.503 269.917, 162.056 270.500 M 78.436 275.104 C 78.060 275.711, 75.896 277.052, 73.627 278.082 L 69.500 279.956 77.937 279.978 L 86.374 280 83.500 277 C 80.382 273.746, 79.483 273.409, 78.436 275.104" stroke="none" fill="#f9fafb" fill-rule="evenodd"/></svg>