<svg xmlns="http://www.w3.org/2000/svg" width="400" height="400" viewBox="0 0 400 400" version="1.1"><path d="M 146.496 20.027 C 145.341 28.426, 147.904 30.462, 162.245 32.539 L 166.990 33.226 167.245 133.786 L 167.500 234.346 183.263 245.752 L 199.026 257.158 212.513 244.433 L 226 231.708 226 133.413 C 226 61.634, 226.304 34.930, 227.126 34.422 C 227.745 34.039, 231.008 33.608, 234.376 33.464 C 237.744 33.319, 241.332 33.156, 242.349 33.100 C 243.366 33.045, 245.503 31.602, 247.099 29.894 C 249.621 27.194, 250 26.018, 250 20.894 L 250 15 198.594 15 L 147.188 15 146.496 20.027 M 174 18.600 C 177.627 19.489, 217.718 23.157, 229.750 23.701 C 241.108 24.214, 243 24.086, 243 22.805 C 243 21.983, 242.177 20.565, 241.171 19.655 C 239.541 18.179, 235.720 18.013, 205.921 18.116 C 187.540 18.180, 173.175 18.397, 174 18.600 M 210 34.415 L 206.500 35.678 206.245 133.839 C 206.105 187.828, 206.278 232, 206.629 232 C 206.980 232, 209.008 231.479, 211.134 230.842 L 215 229.683 215 131.342 C 215 77.254, 214.662 33.034, 214.250 33.076 C 213.838 33.118, 211.925 33.721, 210 34.415 M 111.792 94.347 C 105.664 96.068, 100.698 99.586, 91.504 108.721 C 56.152 143.845, 40.305 195.811, 50.100 244.500 C 62.057 303.938, 107.759 350.015, 168.150 363.519 C 178.034 365.729, 207.237 366.627, 218.186 365.056 C 252.392 360.151, 281.743 345.373, 305.990 320.847 C 325.716 300.894, 340.078 274.135, 346.055 246.199 C 348.968 232.580, 349.730 207.022, 347.631 193.312 C 342.631 160.655, 328.337 132.329, 305.025 108.884 C 293.004 96.795, 287.425 93.707, 277.500 93.651 C 260.835 93.557, 248.463 105.876, 248.527 122.500 C 248.565 132.308, 250.858 136.673, 261.663 147.500 C 275.301 161.166, 282.671 173.157, 287.604 189.703 C 291.163 201.640, 292.023 220.844, 289.547 233.066 C 281.788 271.355, 251.407 300.949, 213.596 307.049 C 204.019 308.594, 182.638 307.741, 174.500 305.489 C 125.317 291.880, 96.007 242.397, 107.979 193.182 C 112.102 176.230, 119.811 163.031, 134.076 148.497 C 145.750 136.603, 148.386 131.702, 148.330 121.998 C 148.221 103.076, 129.949 89.248, 111.792 94.347" stroke="none" fill="#2d3c92" fill-rule="evenodd"/><path d="M -0 200.002 L -0 400.005 200.250 399.752 L 400.500 399.500 400.752 199.750 L 401.005 0 200.502 0 L 0 0 -0 200.002 M 0.490 200.500 C 0.490 310.500, 0.607 355.352, 0.750 300.170 C 0.893 244.989, 0.893 154.989, 0.750 100.170 C 0.607 45.352, 0.490 90.500, 0.490 200.500 M 146.496 20.027 C 145.341 28.426, 147.904 30.462, 162.245 32.539 L 166.990 33.226 167.245 133.786 L 167.500 234.346 183.263 245.752 L 199.026 257.158 212.513 244.433 L 226 231.708 226 133.413 C 226 61.634, 226.304 34.930, 227.126 34.422 C 227.745 34.039, 231.008 33.608, 234.376 33.464 C 237.744 33.319, 241.332 33.156, 242.349 33.100 C 243.366 33.045, 245.503 31.602, 247.099 29.894 C 249.621 27.194, 250 26.018, 250 20.894 L 250 15 198.594 15 L 147.188 15 146.496 20.027 M 174 18.600 C 177.627 19.489, 217.718 23.157, 229.750 23.701 C 241.108 24.214, 243 24.086, 243 22.805 C 243 21.983, 242.177 20.565, 241.171 19.655 C 239.541 18.179, 235.720 18.013, 205.921 18.116 C 187.540 18.180, 173.175 18.397, 174 18.600 M 210 34.415 L 206.500 35.678 206.245 133.839 C 206.105 187.828, 206.278 232, 206.629 232 C 206.980 232, 209.008 231.479, 211.134 230.842 L 215 229.683 215 131.342 C 215 77.254, 214.662 33.034, 214.250 33.076 C 213.838 33.118, 211.925 33.721, 210 34.415 M 111.792 94.347 C 105.664 96.068, 100.698 99.586, 91.504 108.721 C 56.152 143.845, 40.305 195.811, 50.100 244.500 C 62.057 303.938, 107.759 350.015, 168.150 363.519 C 178.034 365.729, 207.237 366.627, 218.186 365.056 C 252.392 360.151, 281.743 345.373, 305.990 320.847 C 325.716 300.894, 340.078 274.135, 346.055 246.199 C 348.968 232.580, 349.730 207.022, 347.631 193.312 C 342.631 160.655, 328.337 132.329, 305.025 108.884 C 293.004 96.795, 287.425 93.707, 277.500 93.651 C 260.835 93.557, 248.463 105.876, 248.527 122.500 C 248.565 132.308, 250.858 136.673, 261.663 147.500 C 275.301 161.166, 282.671 173.157, 287.604 189.703 C 291.163 201.640, 292.023 220.844, 289.547 233.066 C 281.788 271.355, 251.407 300.949, 213.596 307.049 C 204.019 308.594, 182.638 307.741, 174.500 305.489 C 125.317 291.880, 96.007 242.397, 107.979 193.182 C 112.102 176.230, 119.811 163.031, 134.076 148.497 C 145.750 136.603, 148.386 131.702, 148.330 121.998 C 148.221 103.076, 129.949 89.248, 111.792 94.347" stroke="none" fill="#fbfbfb" fill-rule="evenodd"/></svg>