<svg xmlns="http://www.w3.org/2000/svg" width="1024" height="874" viewBox="0 0 1024 874" version="1.1"><path d="M 0 1 C 0 1.664, 86.361 2, 257.083 2 C 398.479 2, 513.994 2.337, 513.783 2.750 C 507.327 15.365, 501.323 34.405, 496.028 59.059 C 493.731 69.751, 485.625 103.475, 478.014 134 C 470.404 164.525, 463.431 193.325, 462.520 198 C 458.552 218.361, 454.096 229.703, 447.623 235.915 C 444.676 238.743, 443.128 239.408, 438.626 239.781 C 428.253 240.641, 417.626 233.251, 399.396 212.500 C 394.081 206.450, 374.362 185.975, 355.577 167 C 322.044 133.127, 312.510 122.993, 296.310 104 C 280.844 85.866, 267.090 74, 261.540 74 C 260.693 74, 259.048 74.952, 257.884 76.116 C 256.020 77.980, 255.848 78.940, 256.441 84.177 C 256.811 87.447, 258.829 96.058, 260.927 103.311 C 263.024 110.565, 273.363 146.650, 283.902 183.500 C 294.441 220.350, 305.106 256.350, 307.603 263.500 C 310.099 270.650, 313.006 280.100, 314.063 284.500 C 316.121 293.062, 316.653 307.304, 314.989 309.292 C 314.433 309.956, 313.006 311.794, 311.818 313.376 C 305.155 322.244, 291.845 322.005, 264 312.516 C 258.225 310.548, 223.125 300.199, 186 289.518 C 148.875 278.837, 115.800 269.159, 112.500 268.012 C 97.031 262.632, 76.692 259.024, 72.994 261.003 C 70.443 262.369, 70.432 265.967, 72.965 270.931 C 74.077 273.111, 82.204 281.665, 91.691 290.641 C 100.910 299.364, 115.888 313.737, 124.976 322.583 C 134.064 331.428, 150.500 346.706, 161.500 356.532 C 199.497 390.475, 255.418 447.896, 253.500 450.999 C 253.264 451.382, 248.442 451.996, 242.785 452.365 C 219.054 453.912, 185.503 460.247, 154.262 469.080 C 144.493 471.843, 109.050 483.245, 75.500 494.420 C 41.950 505.595, 12.254 515.380, 9.508 516.166 C 5.817 517.222, 3.928 518.467, 2.258 520.945 L 0 524.296 0 699.149 L 0 874.002 512.250 873.751 L 1024.500 873.500 1024.747 698.500 L 1024.994 523.500 1022.747 520.716 C 1020.147 517.496, 1017.748 516.768, 990.671 510.978 C 950.415 502.370, 892.681 494.754, 813 487.539 C 741.890 481.100, 698.991 478.941, 564 475.009 C 543.925 474.424, 525.138 473.701, 522.250 473.401 L 517 472.856 517 237.428 C 517 107.943, 517.375 2, 517.834 2 C 519.663 2, 527.203 20.241, 529.653 30.591 C 531.073 36.591, 534.656 50.725, 537.614 62 C 540.573 73.275, 545.259 92.400, 548.028 104.500 C 550.797 116.600, 555.995 138.425, 559.579 153 C 563.164 167.575, 567.634 186.925, 569.514 196 C 571.393 205.075, 573.849 215.164, 574.970 218.420 C 579.821 232.503, 587.153 240, 596.076 240 C 604.485 240, 614.415 231.359, 642 200.035 C 649.975 190.980, 674.059 165.780, 695.520 144.035 C 716.980 122.291, 738.467 99.942, 743.268 94.372 C 759.300 75.770, 769.514 69.488, 774.595 75.106 C 778.520 79.446, 775.819 96.845, 767.863 118.475 C 766.239 122.889, 755.502 159.350, 744.002 199.500 C 732.502 239.650, 721.906 275.875, 720.454 280 C 718.682 285.038, 717.640 290.469, 717.282 296.544 C 716.819 304.409, 717.023 306.124, 718.847 309.699 C 721.647 315.189, 725.016 317.654, 731.578 319.016 C 739.622 320.686, 748.446 318.987, 770.500 311.523 C 780.950 307.986, 818.525 296.759, 854 286.574 C 889.475 276.389, 923.675 266.405, 930 264.387 C 940.078 261.173, 942.818 260.706, 952.160 260.610 C 958.023 260.549, 963.161 260.839, 963.579 261.253 C 964.874 262.536, 959.772 272.107, 953.867 279.474 C 947.889 286.931, 942.043 292.714, 927.501 305.554 C 922.552 309.924, 902.752 328.989, 883.501 347.920 C 864.251 366.852, 838.375 391.875, 826 403.528 C 813.625 415.181, 797.923 430.488, 791.107 437.544 C 777.295 451.842, 777.303 451.797, 788.500 451.931 C 791.800 451.970, 800.575 452.706, 808 453.567 C 844.044 457.742, 882.460 467.144, 942.500 486.482 C 956.800 491.088, 974.125 496.433, 981 498.359 C 998.808 503.350, 1007.555 506.620, 1015.060 511.091 C 1018.668 513.241, 1022.154 515, 1022.806 515 C 1023.717 515, 1024.051 455.289, 1024.246 257.500 L 1024.500 -0 512.250 -0 C 171.417 -0, 0 0.335, 0 1 M 0.489 699 C 0.489 795.525, 0.606 835.013, 0.750 786.750 C 0.893 738.488, 0.893 659.513, 0.750 611.250 C 0.606 562.988, 0.489 602.475, 0.489 699 M 518.999 593.534 C 518.999 594.103, 517.683 595.347, 516.073 596.298 C 504.570 603.093, 506.337 624.344, 518.849 629.686 C 520.857 630.543, 523.245 631.616, 524.155 632.071 C 525.688 632.837, 527.585 632.437, 535.255 629.727 C 540.681 627.809, 545.989 619.292, 545.989 612.500 C 545.989 605.805, 540.868 597.534, 534.769 594.381 C 531.371 592.624, 518.997 591.959, 518.999 593.534 M 642 593.090 C 642 593.414, 638.962 594.228, 635.250 594.898 C 607.023 599.992, 587.129 617.400, 580.282 643 C 579.020 647.717, 578.557 653.204, 578.593 663 C 578.640 675.713, 578.830 676.996, 581.860 685 C 589.901 706.245, 603.399 717.007, 640 731.355 C 649.075 734.912, 660.577 739.592, 665.561 741.755 C 685.775 750.526, 700.453 763.034, 707.655 777.627 C 711.489 785.395, 711.499 785.450, 711.243 796.459 C 711.012 806.423, 710.693 808.101, 707.975 813.659 C 704.269 821.240, 696.058 829.624, 688.280 833.770 C 680.391 837.975, 668.080 841.293, 663.533 840.440 C 661.211 840.005, 660 840.158, 660 840.889 C 660 842.473, 645.428 842.305, 634.923 840.600 C 622.584 838.597, 608.430 834.548, 593.702 828.809 C 586.640 826.057, 580.577 824.090, 580.229 824.437 C 579.881 824.785, 577.480 830.567, 574.893 837.285 L 570.189 849.500 577.005 852.679 C 585.764 856.764, 600.247 861.526, 610.799 863.789 C 615.364 864.768, 618.874 865.793, 618.599 866.068 C 618.325 866.342, 621.982 866.654, 626.727 866.761 C 631.861 866.876, 635.637 867.413, 636.053 868.085 C 636.550 868.890, 640.463 869.018, 649.626 868.530 C 686.998 866.541, 707.392 859.646, 723.699 843.484 C 730.237 837.005, 732.719 833.661, 735.949 826.982 C 738.177 822.375, 740 817.884, 740 817.003 C 740 816.121, 740.533 814.867, 741.184 814.216 C 743.210 812.190, 742.787 783.856, 740.614 776 C 737.200 763.657, 732.286 755.249, 723.022 745.900 C 710.773 733.538, 705.143 730.532, 664.197 714.496 C 654.681 710.769, 643.021 705.420, 638.287 702.610 C 626.403 695.556, 616.940 686.211, 612.777 677.419 C 609.753 671.034, 609.500 669.727, 609.500 660.478 C 609.500 651.177, 609.735 649.978, 612.774 643.806 C 621.233 626.625, 639.797 617.991, 665.448 619.305 C 678.638 619.980, 689.631 622.686, 710.307 630.345 L 725.114 635.830 726.138 633.165 C 730.050 622.981, 732.049 615.499, 731.512 613.053 C 730.240 607.263, 721.899 601.842, 709.199 598.552 C 694.307 594.693, 677.525 592.667, 659.750 592.584 C 649.988 592.538, 642 592.765, 642 593.090 M 878 592.993 C 850.126 595.561, 824.984 607.805, 805.141 628.474 C 785.711 648.712, 775.416 670.971, 768.591 707.500 C 766.981 716.117, 766.783 750.381, 768.330 752.780 C 768.783 753.483, 769.232 756.701, 769.327 759.931 C 769.422 763.160, 769.788 765.626, 770.140 765.410 C 770.493 765.194, 771.093 766.701, 771.474 768.759 C 771.856 770.816, 773.693 777.225, 775.557 783 C 788.723 823.787, 818.966 854.034, 855.923 863.376 C 860.914 864.638, 864.753 865.914, 864.454 866.212 C 864.156 866.511, 875.744 866.741, 890.206 866.724 C 904.668 866.708, 915.856 866.473, 915.069 866.203 C 914.281 865.933, 918.556 864.690, 924.569 863.440 C 936.141 861.034, 947.817 857.568, 957.161 853.764 L 962.822 851.459 958.082 839.979 C 954.406 831.075, 952.881 828.432, 951.282 828.195 C 950.148 828.027, 940.012 830.150, 928.757 832.913 C 902.500 839.358, 895.824 840.356, 883 839.748 C 865.751 838.931, 850.024 832.797, 835.709 821.301 C 816.349 805.754, 800.329 774.555, 799.406 750.601 C 799.239 746.257, 798.629 742.229, 798.051 741.651 C 797.415 741.015, 797.059 735.845, 797.150 728.550 C 797.232 721.923, 797.487 717.737, 797.716 719.250 C 797.945 720.763, 798.583 722, 799.134 722 C 799.684 722, 799.879 721.100, 799.567 720 C 799.255 718.900, 798.735 717.068, 798.410 715.929 C 798.086 714.790, 798.133 711.160, 798.516 707.863 C 799.055 703.215, 799.537 701.992, 800.658 702.422 C 801.564 702.770, 801.843 702.555, 801.404 701.844 C 800.142 699.802, 800.826 695.032, 803.575 686.700 C 813.004 658.132, 831.311 637.550, 856.692 626.985 C 868.845 621.925, 880.233 619.930, 896 620.098 C 909.497 620.242, 909.503 620.243, 925.644 625.621 C 934.805 628.673, 943.586 631, 945.944 631 C 957.611 631, 965.154 619.090, 958.497 611.179 C 947.387 597.976, 911.621 589.895, 878 592.993 M 67.032 683.250 C 67.113 778.233, 67.507 785.780, 73.410 805.421 C 79.564 825.902, 90.346 841.383, 105.702 851.789 C 113.900 857.345, 118.430 859.495, 130.186 863.410 C 166.202 875.405, 209.606 866.640, 235.232 842.198 C 244.872 833.002, 252.284 820.433, 256.577 806 C 258.509 799.506, 261 784.472, 261 779.310 C 261 776.613, 261.391 775.124, 262 775.500 C 263.155 776.214, 263.393 670.236, 262.337 625.750 L 261.678 598 247.839 598 L 234 598 233.823 614.750 C 233.688 627.577, 233.490 629.860, 232.978 624.500 C 232.609 620.650, 232.283 652.926, 232.253 696.224 C 232.196 777.951, 232.270 776.338, 227.825 793 C 222.137 814.319, 207.246 830.143, 185.901 837.551 C 178.109 840.255, 176.538 840.454, 164.226 840.297 C 149.764 840.113, 143.529 838.816, 134.052 834.019 C 117.902 825.845, 106.607 810.730, 101.446 790.385 C 99.090 781.098, 99.088 781.036, 98.592 701.296 C 98.320 657.408, 97.793 616.212, 97.422 609.750 L 96.748 598 81.854 598 L 66.959 598 67.032 683.250 M 357 661.049 C 339.344 662.129, 328.108 664.279, 321.578 667.826 C 315.829 670.949, 313.219 674.137, 311.957 679.577 C 311.448 681.774, 311.037 723, 311.024 773.277 L 311 863.053 325.750 862.777 L 340.500 862.500 340.462 797.500 C 340.441 761.750, 340.216 725.525, 339.962 717 C 339.535 702.690, 339.665 701.142, 341.653 696.843 C 344.281 691.156, 349.147 688.425, 356.248 688.651 C 358.859 688.734, 360.745 688.397, 360.439 687.901 C 359.522 686.417, 383.791 686.873, 395.074 688.551 C 411.399 690.979, 421.418 696.637, 428.631 707.499 C 433.307 714.542, 437.299 726.431, 436.521 731 C 436.132 733.286, 436.245 734.025, 436.846 733.130 C 438.503 730.664, 438.666 739.087, 438.183 801.911 L 437.711 863.322 451.984 862.640 C 459.834 862.266, 466.578 861.761, 466.970 861.519 C 468.347 860.667, 469.116 777.324, 467.953 755 C 466.281 722.907, 461.665 702.503, 453.034 689.054 C 445.802 677.782, 432.155 668.151, 418.415 664.620 C 404.689 661.094, 379.870 659.650, 357 661.049 M 513 763.012 L 513 863.182 527.493 862.841 L 541.985 862.500 541.993 786.412 C 541.997 744.563, 541.705 700.170, 541.343 687.761 L 540.687 665.198 529.593 664.547 C 523.492 664.189, 517.263 663.658, 515.750 663.368 L 513 662.841 513 763.012 M 879.250 868.728 C 881.313 868.944, 884.688 868.944, 886.750 868.728 C 888.813 868.513, 887.125 868.336, 883 868.336 C 878.875 868.336, 877.188 868.513, 879.250 868.728" stroke="none" fill="#fffffe" fill-rule="evenodd"/><path d="M 0 260.607 C 0 476.938, 0.220 519.130, 1.346 518.697 C 2.087 518.413, 7.374 516.771, 13.096 515.047 C 18.818 513.323, 48.925 503.400, 80 492.995 C 111.075 482.590, 144.493 471.822, 154.262 469.067 C 185.589 460.233, 219.097 453.909, 242.750 452.367 C 250.611 451.855, 253 451.369, 253 450.283 C 253 446.674, 239.438 431.251, 226.153 419.751 C 220.294 414.679, 191.875 387.563, 163 359.492 C 134.125 331.421, 107.350 305.557, 103.500 302.016 C 87.450 287.255, 74.734 274.267, 72.928 270.790 C 66.261 257.958, 77.339 256.537, 107.500 266.352 C 116.850 269.395, 152.175 279.809, 186 289.494 C 219.825 299.179, 254.250 309.319, 262.500 312.027 C 288.095 320.430, 297.527 321.761, 305.579 318.104 C 317.670 312.612, 318.950 299.936, 310.138 272.954 C 307.362 264.454, 296.011 225.775, 284.915 187 C 273.818 148.225, 262.921 110.425, 260.699 103 C 255.693 86.270, 254.947 79.053, 257.915 76.085 C 260.679 73.321, 262.533 73.463, 268.500 76.894 C 274.371 80.271, 283.925 89.560, 295.866 103.500 C 313.055 123.565, 322.077 133.162, 356.033 167.500 C 375.070 186.750, 395.308 207.675, 401.006 214 C 419.682 234.727, 428.305 240.637, 438.626 239.781 C 443.128 239.408, 444.676 238.743, 447.623 235.915 C 454.098 229.700, 458.567 218.324, 462.515 198 C 463.423 193.325, 465.453 184.325, 467.027 178 C 468.600 171.675, 473.527 150.338, 477.975 130.585 C 491.369 71.105, 501.154 34.077, 508.932 13.437 C 511.169 7.500, 513 2.497, 513 2.321 C 513 2.144, 397.575 2, 256.500 2 L 0 2 0 260.607 M 67.477 677.500 C 67.477 721.500, 67.600 739.354, 67.750 717.176 C 67.900 694.997, 67.900 658.997, 67.750 637.176 C 67.599 615.354, 67.476 633.500, 67.477 677.500 M 232.175 689.691 C 232.061 736.930, 232.346 762.096, 233 762.500 C 234.142 763.206, 234.176 649.293, 233.040 629.500 C 232.661 622.900, 232.272 649.986, 232.175 689.691 M 359.728 661.722 C 361.503 661.943, 364.653 661.946, 366.728 661.730 C 368.802 661.513, 367.350 661.333, 363.500 661.328 C 359.650 661.324, 357.952 661.501, 359.728 661.722 M 377.750 661.737 C 380.637 661.939, 385.363 661.939, 388.250 661.737 C 391.137 661.535, 388.775 661.370, 383 661.370 C 377.225 661.370, 374.863 661.535, 377.750 661.737 M 513 664.150 C 513 664.618, 516.938 664.964, 521.750 664.921 C 526.563 664.878, 530.050 664.688, 529.500 664.499 C 527.112 663.678, 513 663.380, 513 664.150 M 767.320 731 C 767.320 734.575, 767.502 736.038, 767.723 734.250 C 767.945 732.462, 767.945 729.538, 767.723 727.750 C 767.502 725.962, 767.320 727.425, 767.320 731 M 340.470 799 C 340.470 833.375, 340.596 847.438, 340.749 830.250 C 340.903 813.063, 340.903 784.938, 340.749 767.750 C 340.596 750.563, 340.470 764.625, 340.470 799 M 467.328 843.500 C 467.333 847.350, 467.513 848.802, 467.730 846.728 C 467.946 844.653, 467.943 841.503, 467.722 839.728 C 467.501 837.952, 467.324 839.650, 467.328 843.500 M 890 841.016 C 886.326 841.574, 887.136 841.727, 894.417 841.850 C 899.321 841.932, 903.146 841.838, 902.917 841.639 C 901.910 840.767, 894.113 840.391, 890 841.016 M 440 862.013 C 440 862.582, 443.459 863, 448.167 863 C 452.658 863, 456.146 862.838, 455.917 862.640 C 454.827 861.697, 440 861.113, 440 862.013 M 513 862.031 C 513 862.582, 516.742 863, 521.667 863 C 526.433 863, 530.146 862.838, 529.917 862.639 C 528.851 861.717, 513 861.148, 513 862.031" stroke="none" fill="#0053c6" fill-rule="evenodd"/><path d="M 522.685 594.021 C 515.291 595.349, 509.973 601.221, 509.239 608.869 C 508.540 616.138, 509.671 620.556, 513.284 624.670 C 519.115 631.312, 527.854 632.879, 536.034 628.750 C 541.953 625.763, 544.969 620.441, 544.962 613 C 544.948 599.687, 535.580 591.706, 522.685 594.021 M 636.500 595.032 C 610.481 600.500, 594.324 611.711, 585.343 630.529 C 580.917 639.803, 579.035 649.185, 579.032 662 C 579.025 689.958, 590.750 707.878, 617.964 721.504 C 622.069 723.559, 633.994 728.601, 644.464 732.708 C 668.187 742.013, 682.570 749.317, 691.219 756.451 C 709.303 771.367, 717.057 792.270, 710.609 808.722 C 704.595 824.069, 694.316 833.157, 676.381 838.988 C 667.440 841.894, 666.467 842, 648.641 842 C 635.078 842, 630.059 841.678, 629.763 840.790 C 629.504 840.011, 627.338 839.628, 623.680 839.713 C 619.770 839.805, 618 839.462, 618 838.612 C 618 837.933, 615.862 836.824, 613.250 836.147 C 610.638 835.469, 602.214 832.483, 594.531 829.510 C 586.849 826.536, 580.502 824.193, 580.427 824.302 C 580.352 824.411, 578.143 830.063, 575.518 836.862 C 571.646 846.890, 571.005 849.391, 572.122 850.107 C 572.880 850.593, 578.092 852.798, 583.704 855.007 C 624.192 870.942, 673.033 871.763, 703.793 857.025 C 719.280 849.604, 729.115 840.172, 735.659 826.465 C 740.744 815.815, 742.306 806.874, 741.686 791.964 C 741.041 776.448, 737.951 766.084, 730.767 755.343 C 721.331 741.236, 708.949 732.762, 682.730 722.466 C 642.221 706.560, 635.079 702.869, 623.468 691.839 C 618.314 686.943, 615.191 682.938, 612.835 678.204 C 611.001 674.517, 609.163 671.350, 608.750 671.167 C 607.760 670.727, 607.775 651, 608.765 651 C 609.186 651, 610.301 648.862, 611.243 646.250 C 618.206 626.934, 642.462 615.753, 670.173 619.084 C 675.303 619.701, 680.175 620.218, 681 620.234 C 682.607 620.263, 702.167 626.819, 715.818 631.902 C 720.393 633.606, 724.298 635, 724.496 635 C 725.625 635, 731 618.391, 731 614.900 C 731 606.797, 722.511 601.844, 701 597.396 C 678.056 592.651, 652.319 591.708, 636.500 595.032 M 872.520 594.115 C 841.853 598.581, 815.185 614.314, 796.732 638.828 C 784.318 655.321, 776.078 673.991, 770.756 697.686 C 768.822 706.297, 768.553 710.382, 768.564 731 C 768.575 753.206, 768.730 755.161, 771.380 766.500 C 776.260 787.377, 782.418 802.035, 792.836 817.571 C 811.172 844.912, 838.657 861.652, 872.500 866.090 C 889.642 868.338, 916.610 865.896, 936 860.340 C 943.774 858.112, 960.999 852.174, 961.862 851.424 C 962.061 851.251, 960.058 845.907, 957.412 839.547 L 952.601 827.984 949.051 828.622 C 947.098 828.973, 937.618 831.195, 927.985 833.560 C 918.352 835.925, 907.327 838.434, 903.485 839.136 C 896.888 840.342, 896.694 840.451, 900 841.114 C 902.029 841.520, 899.718 841.682, 894.500 841.500 C 866.390 840.516, 847.829 833.456, 830.945 817.325 C 818.053 805.008, 809.559 791.145, 803.539 772.596 C 798.280 756.388, 797.499 750.606, 797.514 728 C 797.528 709.113, 797.738 706.674, 800.194 697 C 805.360 676.653, 813.114 661.515, 824.834 648.900 C 836.305 636.553, 848.430 628.779, 863.500 624.112 C 867.350 622.919, 871.850 621.518, 873.500 620.999 C 878.749 619.347, 901.010 618.622, 908.174 619.870 C 911.810 620.503, 919.468 622.780, 925.191 624.930 C 939.387 630.262, 946.795 631.742, 950.862 630.057 C 955.200 628.260, 961 621.592, 961 618.401 C 961 609.220, 944.480 599.388, 923.133 595.864 C 907.148 593.225, 884.101 592.428, 872.520 594.115 M 68.069 685.250 C 68.174 777.210, 68.466 784.250, 72.878 801.524 C 81.931 836.970, 104.681 858.294, 141.523 865.869 C 155 868.640, 179.495 868.278, 191.251 865.135 C 224.292 856.301, 245.053 838.298, 254.595 810.205 C 260.864 791.749, 261 789.171, 261 688.622 L 261 598 247.500 598 L 234 598 234 678.394 C 234 749.344, 233.625 765.526, 231.624 781 C 231.446 782.375, 230.763 785.423, 230.105 787.773 C 229.448 790.123, 229.182 792.486, 229.514 793.023 C 229.846 793.560, 229.641 794, 229.059 794 C 228.477 794, 228 794.586, 228 795.303 C 228 797.891, 220.166 812.617, 216.086 817.698 C 203.931 832.836, 180.798 842.859, 160.812 841.646 C 150.984 841.050, 143.696 840.012, 143 839.108 C 142.725 838.751, 138.910 836.706, 134.522 834.562 C 119.512 827.230, 107.412 812.286, 102.088 794.500 C 97.243 778.313, 97.012 773.245, 97.006 682.750 L 97 598 82.484 598 L 67.969 598 68.069 685.250 M 356 662.124 C 348.025 662.468, 340.600 662.837, 339.500 662.945 L 337.500 663.141 339.500 664.067 C 340.939 664.734, 340.352 664.837, 337.403 664.435 C 332.844 663.813, 322.486 666.806, 317.904 670.068 C 312.131 674.179, 312.280 671.258, 312.785 770.250 L 313.249 861 326.729 861 L 340.209 861 339.896 780.250 C 339.552 691.781, 339.107 700.254, 344.589 690.875 C 345.188 689.850, 345.864 689.197, 346.091 689.424 C 346.317 689.651, 348.977 689.188, 352.001 688.396 C 359.517 686.429, 392.875 686.569, 400.846 688.601 C 419.256 693.296, 431.499 705.667, 436.371 724.500 C 439.421 736.289, 439.984 748.757, 439.992 804.750 L 440 861 453.342 861 L 466.684 861 467.342 842.840 C 468.281 816.912, 468.076 759.289, 467.002 747.500 C 464.367 718.569, 462.130 708.043, 455.949 695.500 C 453.781 691.100, 450.156 685.346, 447.894 682.713 C 439.325 672.740, 424.215 665.224, 408.452 663.094 C 398.465 661.745, 374.919 661.310, 356 662.124 M 513 763 L 513 861 527 861 L 541 861 541 763.617 L 541 666.233 538.750 665.630 C 537.513 665.299, 531.212 665.021, 524.750 665.014 L 513 665 513 763" stroke="none" fill="#211c1f" fill-rule="evenodd"/><path d="M 517 237.306 L 517 472.856 522.250 473.401 C 525.138 473.701, 543.925 474.424, 564 475.009 C 755.578 480.587, 832.355 485.450, 912.500 497.083 C 949.100 502.396, 1007.099 513.610, 1018.500 517.579 C 1023.746 519.404, 1024.260 519.355, 1023.074 517.138 C 1021.624 514.428, 1009.674 507.599, 1001 504.522 C 996.875 503.059, 987.875 500.286, 981 498.359 C 974.125 496.433, 956.800 491.088, 942.500 486.482 C 882.460 467.144, 844.044 457.742, 808 453.567 C 800.575 452.706, 791.800 451.970, 788.500 451.931 C 777.977 451.806, 777.968 451.667, 787.764 440.714 C 792.569 435.340, 808.200 420.012, 822.500 406.651 C 836.800 393.289, 864.251 366.864, 883.501 347.929 C 902.752 328.993, 922.552 309.924, 927.501 305.554 C 942.043 292.714, 947.889 286.931, 953.867 279.474 C 959.772 272.107, 964.874 262.536, 963.579 261.253 C 963.161 260.839, 958.023 260.549, 952.160 260.610 C 942.818 260.706, 940.078 261.173, 930 264.387 C 923.675 266.405, 889.475 276.389, 854 286.574 C 818.525 296.759, 780.950 307.986, 770.500 311.523 C 748.446 318.987, 739.622 320.686, 731.578 319.016 C 725.016 317.654, 721.647 315.189, 718.847 309.699 C 717.023 306.124, 716.819 304.409, 717.282 296.544 C 717.640 290.469, 718.682 285.038, 720.454 280 C 721.906 275.875, 732.502 239.650, 744.002 199.500 C 755.502 159.350, 766.239 122.889, 767.863 118.475 C 785.895 69.454, 774.428 58.216, 743.268 94.372 C 738.467 99.942, 716.980 122.291, 695.520 144.035 C 674.059 165.780, 649.975 190.980, 642 200.035 C 614.415 231.359, 604.485 240, 596.076 240 C 587.153 240, 579.821 232.503, 574.970 218.420 C 573.849 215.164, 571.392 205.075, 569.512 196 C 567.631 186.925, 562.667 165.550, 558.481 148.500 C 554.294 131.450, 546.666 100.400, 541.528 79.500 C 536.391 58.600, 531.043 36.618, 529.644 30.652 C 527.183 20.155, 521.070 5.133, 518.336 2.864 C 517.222 1.939, 517 40.907, 517 237.306 M 658.250 592.728 C 660.313 592.944, 663.688 592.944, 665.750 592.728 C 667.813 592.513, 666.125 592.336, 662 592.336 C 657.875 592.336, 656.188 592.513, 658.250 592.728 M 885.083 592.369 C 885.313 592.572, 891.575 592.977, 899 593.268 C 907.561 593.604, 910.488 593.505, 907 592.998 C 901.410 592.185, 884.322 591.695, 885.083 592.369 M 261.186 686.191 C 261.064 744.442, 261.343 775.094, 262 775.500 C 263.132 776.200, 263.168 653.484, 262.046 618.500 C 261.632 605.577, 261.301 631.613, 261.186 686.191 M 97.179 693.250 C 97.061 743.869, 97.340 770, 98 770 C 99.140 770, 99.178 657.465, 98.047 632 C 97.641 622.871, 97.284 648.046, 97.179 693.250 M 891.728 619.722 C 893.503 619.943, 896.653 619.946, 898.728 619.730 C 900.802 619.513, 899.350 619.333, 895.500 619.328 C 891.650 619.324, 889.952 619.501, 891.728 619.722 M 374.776 660.733 C 377.128 660.945, 380.728 660.942, 382.776 660.727 C 384.824 660.512, 382.900 660.339, 378.500 660.343 C 374.100 660.346, 372.424 660.522, 374.776 660.733 M 311.175 777.250 L 311 863 325.441 863 C 333.990 863, 340.134 862.592, 340.500 862 C 340.901 861.351, 336.177 861, 327.059 861 L 313 861 312.864 788.250 C 312.790 748.237, 312.419 710.100, 312.040 703.500 C 311.661 696.900, 311.272 730.087, 311.175 777.250 M 541 777.968 L 541 860.937 529.250 861.222 L 517.500 861.507 529.752 862.004 L 542.004 862.500 542.002 778.750 C 542.001 732.688, 541.775 695, 541.500 695 C 541.225 695, 541 732.336, 541 777.968 M 797.418 716 C 797.723 717.375, 797.979 719.288, 797.986 720.250 C 797.994 721.212, 798.459 722, 799.019 722 C 800.132 722, 799.343 717.485, 797.796 715 C 797.123 713.918, 797.017 714.197, 797.418 716 M 797.353 742.332 C 797.709 743.339, 798 745.728, 798 747.641 C 798 749.773, 798.399 750.872, 799.031 750.481 C 800.239 749.734, 799.264 742.994, 797.732 741.500 C 797.036 740.822, 796.914 741.089, 797.353 742.332 M 438.658 761.750 C 437.592 782.665, 437.863 863, 439 863 C 439.655 863, 440 843.333, 440 806 C 440 774.650, 439.844 749, 439.654 749 C 439.464 749, 439.016 754.737, 438.658 761.750 M 468.320 773 C 468.320 776.575, 468.502 778.038, 468.723 776.250 C 468.945 774.462, 468.945 771.538, 468.723 769.750 C 468.502 767.962, 468.320 769.425, 468.320 773 M 468.374 798.500 C 468.376 804.550, 468.541 806.896, 468.740 803.713 C 468.939 800.531, 468.937 795.581, 468.736 792.713 C 468.535 789.846, 468.372 792.450, 468.374 798.500 M 711.667 794.667 C 711.300 795.033, 711 797.583, 711 800.333 C 711 806.653, 712.283 805.615, 712.678 798.976 C 712.978 793.940, 712.867 793.466, 711.667 794.667 M 156.500 841.046 C 159.250 841.474, 162.850 841.811, 164.500 841.794 L 167.500 841.763 164.500 841 C 162.850 840.580, 159.250 840.244, 156.500 840.252 L 151.500 840.267 156.500 841.046 M 467.180 855.217 L 467 860.934 455.750 861.253 L 444.500 861.572 455.781 861.786 C 468.528 862.028, 468.345 862.141, 467.740 854.373 L 467.360 849.500 467.180 855.217 M 636 868.015 C 636 868.563, 638.958 869, 642.667 869 C 646.333 869, 649.146 868.838, 648.917 868.640 C 647.822 867.694, 636 867.123, 636 868.015 M 158.250 868.735 C 160.863 868.941, 165.137 868.941, 167.750 868.735 C 170.363 868.529, 168.225 868.360, 163 868.360 C 157.775 868.360, 155.637 868.529, 158.250 868.735 M 879.250 868.728 C 881.313 868.944, 884.688 868.944, 886.750 868.728 C 888.813 868.513, 887.125 868.336, 883 868.336 C 878.875 868.336, 877.188 868.513, 879.250 868.728" stroke="none" fill="#fccc22" fill-rule="evenodd"/></svg>